<?xml version="1.0" encoding="UTF-8" standalone="no"?>
<svg
   xmlns:dc="http://purl.org/dc/elements/1.1/"
   xmlns:cc="http://creativecommons.org/ns#"
   xmlns:rdf="http://www.w3.org/1999/02/22-rdf-syntax-ns#"
   xmlns:svg="http://www.w3.org/2000/svg"
   xmlns="http://www.w3.org/2000/svg"
   xmlns:sodipodi="http://sodipodi.sourceforge.net/DTD/sodipodi-0.dtd"
   xmlns:inkscape="http://www.inkscape.org/namespaces/inkscape"
   version="1.1"
   id="Capa_1"
   x="0px"
   y="0px"
   viewBox="0 0 142.448 142.448"
   style="enable-background:new 0 0 142.448 142.448;"
   xml:space="preserve"
   sodipodi:docname="_ff1.0.svg"
   inkscape:version="1.0beta1 (fe3e306, 2019-09-17)"
   inkscape:export-filename="C:\Users\as.choi\slow0.5.png"
   inkscape:export-xdpi="96"
   inkscape:export-ydpi="96"><metadata
   id="metadata94">
  <rdf:RDF>
    <cc:Work
   rdf:about="">
      <dc:format>image/svg+xml</dc:format>



      <dc:type
   rdf:resource="http://purl.org/dc/dcmitype/StillImage" />



      <dc:title />



    </cc:Work>



  </rdf:RDF>



</metadata>



<defs
   id="defs92" />



<sodipodi:namedview
   pagecolor="#ffffff"
   bordercolor="#666666"
   inkscape:document-rotation="0"
   borderopacity="1"
   objecttolerance="10"
   gridtolerance="10"
   guidetolerance="10"
   inkscape:pageopacity="0"
   inkscape:pageshadow="2"
   inkscape:window-width="1402"
   inkscape:window-height="943"
   id="namedview90"
   showgrid="false"
   inkscape:snap-center="true"
   inkscape:snap-midpoints="true"
   inkscape:snap-object-midpoints="true"
   inkscape:object-paths="false"
   inkscape:zoom="0.81794673"
   inkscape:cx="130.16165"
   inkscape:cy="141.46993"
   inkscape:window-x="390"
   inkscape:window-y="23"
   inkscape:window-maximized="0"
   inkscape:current-layer="Capa_1" />





<g
   id="g59">
</g>




<g
   id="g61">
</g>




<g
   id="g63">
</g>




<g
   id="g65">
</g>




<g
   id="g67">
</g>




<g
   id="g69">
</g>




<g
   id="g71">
</g>




<g
   id="g73">
</g>




<g
   id="g75">
</g>




<g
   id="g77">
</g>




<g
   id="g79">
</g>




<g
   id="g81">
</g>




<g
   id="g83">
</g>




<g
   id="g85">
</g>




<g
   id="g87">
</g>




<path
   sodipodi:nodetypes="ccssccc"
   inkscape:connector-curvature="0"
   id="path55-9"
   d="m 89.270602,40.117978 -27.584,-19.440152 c -3.369,-2.073983 -8.059,-0.0069 -8.059,3.55221 V 63.1112 c 0,3.559077 4.69,5.626193 8.059,3.55221 l 27.583,-19.441011 c 2.834,-1.743485 2.834,-5.360078 10e-4,-7.104421 z"
   style="fill:#999999;stroke-width:0.926518" />





<g
   aria-label="1.0x"
   transform="matrix(1.0265173,0,0,0.97416771,0,-71.847178)"
   id="text1142-0-8"
   style="font-style:normal;font-variant:normal;font-weight:normal;font-stretch:normal;font-size:68.018px;line-height:1.25;font-family:'Arial Rounded MT Bold';-inkscape-font-specification:'Arial Rounded MT Bold, ';stroke-width:1.70045;fill:#999999">
  <path
   d="m 25.767638,199.25408 v -30.22285 q -8.435824,6.47633 -11.358472,6.47633 -1.3949,0 -2.490893,-1.096 -1.062781,-1.1292 -1.062781,-2.59052 0,-1.69381 1.062781,-2.4909 1.062781,-0.79708 3.752946,-2.05914 4.01864,-1.89308 6.409897,-3.98543 2.424469,-2.09235 4.284337,-4.68288 1.859867,-2.59053 2.424469,-3.18834 0.564603,-0.59781 2.125563,-0.59781 1.760231,0 2.823012,1.36168 1.062781,1.36169 1.062781,3.75295 v 38.02764 q 0,6.6756 -4.550032,6.6756 -2.025926,0 -3.254767,-1.36169 -1.228841,-1.36169 -1.228841,-4.01864 z"
   style="font-style:normal;font-variant:normal;font-weight:normal;font-stretch:normal;font-family:'Arial Rounded MT Bold';-inkscape-font-specification:'Arial Rounded MT Bold, ';stroke-width:1.70045;fill:#999999"
   id="path1213"
   inkscape:connector-curvature="0" />



  <path
   d="m 44.012728,204.63441 q -2.059138,0 -3.553674,-1.32848 -1.494536,-1.32848 -1.494536,-3.71974 0,-2.02592 1.428112,-3.48725 1.428112,-1.46132 3.520463,-1.46132 2.09235,0 3.553674,1.46132 1.494536,1.42812 1.494536,3.48725 0,2.35805 -1.494536,3.71974 -1.461324,1.32848 -3.454039,1.32848 z"
   style="font-style:normal;font-variant:normal;font-weight:normal;font-stretch:normal;font-family:'Arial Rounded MT Bold';-inkscape-font-specification:'Arial Rounded MT Bold, ';stroke-width:1.70045;fill:#999999"
   id="path1215"
   inkscape:connector-curvature="0" />



  <path
   d="m 85.926457,179.92474 q 0,5.44676 -0.664239,9.36576 -0.664238,3.91901 -2.457681,7.10735 -2.25841,3.91901 -5.845297,6.04457 -3.586886,2.12556 -7.970859,2.12556 -5.048211,0 -9.066852,-2.85622 -3.98543,-2.85623 -6.011356,-7.90444 -1.02957,-2.75659 -1.527748,-6.07778 -0.464967,-3.3544 -0.464967,-7.2402 0,-5.01499 0.53139,-9.03364 0.531391,-4.01864 1.660596,-6.90807 1.959503,-4.78252 5.679237,-7.27341 3.752946,-2.52411 8.934005,-2.52411 3.420827,0 6.210627,1.12921 2.789801,1.09599 4.882152,3.25476 2.125562,2.12557 3.586886,5.2807 2.524106,5.47996 2.524106,15.50996 z m -9.100065,-0.66424 q 0,-6.07778 -0.730662,-9.93036 -0.730662,-3.88579 -2.457681,-5.84529 -1.72702,-1.99272 -4.782516,-1.99272 -4.383972,0 -6.110992,4.41718 -1.693807,4.41719 -1.693807,13.61689 0,6.24384 0.730662,10.22927 0.730662,3.98543 2.457681,6.04457 1.72702,2.02592 4.68288,2.02592 3.055496,0 4.782516,-2.12556 1.727019,-2.12556 2.424469,-6.07778 0.69745,-3.95222 0.69745,-10.36212 z"
   style="font-style:normal;font-variant:normal;font-weight:normal;font-stretch:normal;font-family:'Arial Rounded MT Bold';-inkscape-font-specification:'Arial Rounded MT Bold, ';stroke-width:1.70045;fill:#999999"
   id="path1217"
   inkscape:connector-curvature="0" />



  <path
   d="m 111.51077,200.88146 -6.57596,-9.66467 -6.742005,9.66467 q -1.461325,2.02593 -2.49089,2.88944 -0.99636,0.86351 -2.557315,0.86351 -1.727015,0 -2.955856,-1.06279 -1.195629,-1.09599 -1.195629,-2.49089 0,-1.42811 1.859868,-4.08506 l 8.203332,-11.75702 -7.273399,-9.79752 q -1.893079,-2.42447 -1.893079,-4.21791 0,-1.3949 1.129205,-2.42447 1.129205,-1.02957 2.955858,-1.02957 1.594165,0 2.62373,0.89672 1.06278,0.89673 2.457685,2.82302 l 5.878495,8.03728 5.71245,-8.03728 q 1.42811,-1.99272 2.45768,-2.85623 1.06279,-0.86351 2.62375,-0.86351 1.79344,0 2.95586,1.02957 1.19562,0.99636 1.19562,2.42447 0,1.02957 -0.49817,1.99272 -0.46497,0.92993 -1.46133,2.22519 l -7.27341,9.79752 8.20335,11.75702 q 1.92629,2.75658 1.92629,4.15148 0,1.42812 -1.19563,2.45769 -1.19563,1.02957 -2.95586,1.02957 -1.56096,0 -2.65696,-0.89673 -1.06278,-0.89672 -2.45768,-2.85622 z"
   style="font-style:normal;font-variant:normal;font-weight:normal;font-stretch:normal;font-family:'Arial Rounded MT Bold';-inkscape-font-specification:'Arial Rounded MT Bold, ';stroke-width:1.70045;fill:#999999"
   id="path1219"
   inkscape:connector-curvature="0" />



</g>







</svg>
