<?xml version="1.0" encoding="UTF-8" standalone="no"?>
<svg
   xmlns:dc="http://purl.org/dc/elements/1.1/"
   xmlns:cc="http://creativecommons.org/ns#"
   xmlns:rdf="http://www.w3.org/1999/02/22-rdf-syntax-ns#"
   xmlns:svg="http://www.w3.org/2000/svg"
   xmlns="http://www.w3.org/2000/svg"
   xmlns:sodipodi="http://sodipodi.sourceforge.net/DTD/sodipodi-0.dtd"
   xmlns:inkscape="http://www.inkscape.org/namespaces/inkscape"
   version="1.1"
   id="Capa_1"
   x="0px"
   y="0px"
   viewBox="0 0 142.448 142.448"
   style="enable-background:new 0 0 142.448 142.448;"
   xml:space="preserve"
   sodipodi:docname="_ff1.5.svg"
   inkscape:version="1.0beta1 (fe3e306, 2019-09-17)"
   inkscape:export-filename="C:\Users\as.choi\slow0.5.png"
   inkscape:export-xdpi="96"
   inkscape:export-ydpi="96"><metadata
   id="metadata94">
  <rdf:RDF>
    <cc:Work
   rdf:about="">
      <dc:format>image/svg+xml</dc:format>



      <dc:type
   rdf:resource="http://purl.org/dc/dcmitype/StillImage" />



      <dc:title />



    </cc:Work>



  </rdf:RDF>



</metadata>



<defs
   id="defs92" />



<sodipodi:namedview
   pagecolor="#ffffff"
   bordercolor="#666666"
   inkscape:document-rotation="0"
   borderopacity="1"
   objecttolerance="10"
   gridtolerance="10"
   guidetolerance="10"
   inkscape:pageopacity="0"
   inkscape:pageshadow="2"
   inkscape:window-width="1402"
   inkscape:window-height="943"
   id="namedview90"
   showgrid="false"
   inkscape:snap-center="true"
   inkscape:snap-midpoints="true"
   inkscape:snap-object-midpoints="true"
   inkscape:object-paths="false"
   inkscape:zoom="1.1567514"
   inkscape:cx="77.497671"
   inkscape:cy="97.686791"
   inkscape:window-x="390"
   inkscape:window-y="23"
   inkscape:window-maximized="0"
   inkscape:current-layer="Capa_1" />





<g
   id="g59">
</g>




<g
   id="g61">
</g>




<g
   id="g63">
</g>




<g
   id="g65">
</g>




<g
   id="g67">
</g>




<g
   id="g69">
</g>




<g
   id="g71">
</g>




<g
   id="g73">
</g>




<g
   id="g75">
</g>




<g
   id="g77">
</g>




<g
   id="g79">
</g>




<g
   id="g81">
</g>




<g
   id="g83">
</g>




<g
   id="g85">
</g>




<g
   id="g87">
</g>




<path
   sodipodi:nodetypes="ccssccc"
   inkscape:connector-curvature="0"
   id="path55-9"
   d="m 81.270602,40.117978 -27.584,-19.440152 c -3.369,-2.073983 -8.059,-0.0069 -8.059,3.55221 V 63.1112 c 0,3.559077 4.69,5.626193 8.059,3.55221 l 27.583,-19.441011 c 2.834,-1.743485 2.834,-5.360078 10e-4,-7.104421 z"
   style="fill:#999999;stroke-width:0.926518" />







<g
   aria-label="1.5x"
   transform="matrix(1.0265173,0,0,0.97416771,6,-128)"
   id="text1142-0-8-2"
   style="font-style:normal;font-variant:normal;font-weight:normal;font-stretch:normal;font-size:68.018px;line-height:1.25;font-family:'Arial Rounded MT Bold';-inkscape-font-specification:'Arial Rounded MT Bold, ';stroke-width:1.70045;fill:#999999">
  <path
   d="m 25.617309,257.36369 v -30.22284 q -8.435825,6.47633 -11.358473,6.47633 -1.3949,0 -2.490892,-1.096 -1.062782,-1.1292 -1.062782,-2.59053 0,-1.6938 1.062782,-2.49089 1.062781,-0.79708 3.752945,-2.05914 4.018641,-1.89308 6.409898,-3.98543 2.424469,-2.09235 4.284336,-4.68288 1.859867,-2.59053 2.42447,-3.18834 0.564602,-0.59781 2.125562,-0.59781 1.760231,0 2.823013,1.36168 1.062781,1.36169 1.062781,3.75295 v 38.02764 q 0,6.67559 -4.550032,6.67559 -2.025927,0 -3.254768,-1.36168 -1.22884,-1.36169 -1.22884,-4.01865 z"
   style="font-style:normal;font-variant:normal;font-weight:normal;font-stretch:normal;font-family:'Arial Rounded MT Bold';-inkscape-font-specification:'Arial Rounded MT Bold, ';stroke-width:1.70045;fill:#999999"
   id="path1222"
   inkscape:connector-curvature="0" />



  <path
   d="m 43.862399,262.74402 q -2.059139,0 -3.553675,-1.32847 -1.494536,-1.32848 -1.494536,-3.71974 0,-2.02592 1.428112,-3.48725 1.428113,-1.46132 3.520463,-1.46132 2.092351,0 3.553675,1.46132 1.494536,1.42812 1.494536,3.48725 0,2.35805 -1.494536,3.71974 -1.461324,1.32847 -3.454039,1.32847 z"
   style="font-style:normal;font-variant:normal;font-weight:normal;font-stretch:normal;font-family:'Arial Rounded MT Bold';-inkscape-font-specification:'Arial Rounded MT Bold, ';stroke-width:1.70045;fill:#999999"
   id="path1224"
   inkscape:connector-curvature="0" />



  <path
   d="M 80.063678,221.4284 H 64.288019 l -1.893079,10.76066 q 4.716092,-2.5241 8.701521,-2.5241 3.188344,0 5.944933,1.19563 2.789801,1.19563 4.882151,3.32119 2.092351,2.09235 3.287979,4.98179 1.195629,2.88943 1.195629,6.21062 0,4.81573 -2.158774,8.76795 -2.158774,3.95222 -6.24384,6.27705 -4.051853,2.32483 -9.365759,2.32483 -5.944932,0 -9.664667,-2.19198 -3.686522,-2.19199 -5.247482,-5.015 -1.527748,-2.85622 -1.527748,-4.98179 0,-1.29526 1.062781,-2.45768 1.095993,-1.16242 2.723377,-1.16242 2.789801,0 4.151489,3.22156 1.328477,2.95586 3.586887,4.61646 2.25841,1.62738 5.048211,1.62738 2.557317,0 4.483608,-1.32848 1.926291,-1.32847 2.95586,-3.65331 1.062781,-2.32483 1.062781,-5.28069 0,-3.18835 -1.129205,-5.44676 -1.129205,-2.25841 -3.022284,-3.3544 -1.893079,-1.1292 -4.217913,-1.1292 -2.856224,0 -4.085065,0.69745 -1.228841,0.69745 -3.553675,2.45768 -2.291622,1.72702 -3.786158,1.72702 -1.627384,0 -2.889436,-1.16242 -1.262053,-1.19563 -1.262053,-2.69016 0,-0.16606 0.365331,-2.25841 l 2.789801,-15.90851 q 0.464967,-2.85623 1.727019,-4.15149 1.262053,-1.29526 4.118277,-1.29526 h 17.535891 q 5.181058,0 5.181058,3.95221 0,1.72702 -1.262053,2.7898 -1.262052,1.06278 -3.719734,1.06278 z"
   style="font-style:normal;font-variant:normal;font-weight:normal;font-stretch:normal;font-family:'Arial Rounded MT Bold';-inkscape-font-specification:'Arial Rounded MT Bold, ';stroke-width:1.70045;fill:#999999"
   id="path1226"
   inkscape:connector-curvature="0" />



  <path
   d="m 111.36044,258.99108 -6.57596,-9.66467 -6.742,9.66467 q -1.46133,2.02593 -2.490895,2.88943 -0.99636,0.86351 -2.557315,0.86351 -1.727014,0 -2.955855,-1.06278 -1.195629,-1.09599 -1.195629,-2.49089 0,-1.42811 1.859867,-4.08507 l 8.203332,-11.75701 -7.273398,-9.79752 q -1.893079,-2.42447 -1.893079,-4.21791 0,-1.3949 1.129205,-2.42447 1.129205,-1.02957 2.955857,-1.02957 1.594165,0 2.62373,0.89672 1.06279,0.89672 2.457685,2.82302 l 5.878495,8.03728 5.71245,-8.03728 q 1.42812,-1.99272 2.45768,-2.85623 1.06279,-0.86351 2.62375,-0.86351 1.79344,0 2.95586,1.02957 1.19562,0.99636 1.19562,2.42447 0,1.02957 -0.49817,1.99271 -0.46497,0.92994 -1.46133,2.2252 l -7.27341,9.79752 8.20335,11.75701 q 1.92629,2.75659 1.92629,4.15149 0,1.42812 -1.19563,2.45769 -1.19563,1.02956 -2.95586,1.02956 -1.56096,0 -2.65696,-0.89672 -1.06278,-0.89672 -2.45768,-2.85622 z"
   style="font-style:normal;font-variant:normal;font-weight:normal;font-stretch:normal;font-family:'Arial Rounded MT Bold';-inkscape-font-specification:'Arial Rounded MT Bold, ';stroke-width:1.70045;fill:#999999"
   id="path1228"
   inkscape:connector-curvature="0" />



</g>





<path
   style="fill:#999999;stroke-width:0.926518"
   d="m 105.79737,40.11862 -27.584,-19.44015 c -3.369,-2.07398 -8.059,-0.007 -8.059,3.55221 v 38.88117 c 0,3.55907 4.69,5.62619 8.059,3.55221 l 27.583,-19.44101 c 2.834,-1.74349 2.834,-5.36008 0.001,-7.10443 z"
   id="path55-9-8"
   inkscape:connector-curvature="0"
   sodipodi:nodetypes="ccssccc" />



</svg>
