<?xml version="1.0" encoding="UTF-8" standalone="no"?>
<svg
   xmlns:dc="http://purl.org/dc/elements/1.1/"
   xmlns:cc="http://creativecommons.org/ns#"
   xmlns:rdf="http://www.w3.org/1999/02/22-rdf-syntax-ns#"
   xmlns:svg="http://www.w3.org/2000/svg"
   xmlns="http://www.w3.org/2000/svg"
   xmlns:sodipodi="http://sodipodi.sourceforge.net/DTD/sodipodi-0.dtd"
   xmlns:inkscape="http://www.inkscape.org/namespaces/inkscape"
   version="1.1"
   id="Capa_1"
   x="0px"
   y="0px"
   viewBox="0 0 142.448 142.448"
   style="enable-background:new 0 0 142.448 142.448;"
   xml:space="preserve"
   sodipodi:docname="_slow0.75.svg"
   inkscape:version="1.0beta1 (fe3e306, 2019-09-17)"
   inkscape:export-filename="C:\Users\as.choi\slow0.5.png"
   inkscape:export-xdpi="96"
   inkscape:export-ydpi="96"><metadata
   id="metadata94">
  <rdf:RDF>
    <cc:Work
   rdf:about="">
      <dc:format>image/svg+xml</dc:format>



      <dc:type
   rdf:resource="http://purl.org/dc/dcmitype/StillImage" />



      <dc:title />



    </cc:Work>



  </rdf:RDF>



</metadata>



<defs
   id="defs92" />



<sodipodi:namedview
   pagecolor="#ffffff"
   bordercolor="#666666"
   inkscape:document-rotation="0"
   borderopacity="1"
   objecttolerance="10"
   gridtolerance="10"
   guidetolerance="10"
   inkscape:pageopacity="0"
   inkscape:pageshadow="2"
   inkscape:window-width="936"
   inkscape:window-height="692"
   id="namedview90"
   showgrid="false"
   inkscape:snap-center="true"
   inkscape:snap-midpoints="true"
   inkscape:snap-object-midpoints="true"
   inkscape:object-paths="false"
   inkscape:zoom="1.4"
   inkscape:cx="93.786797"
   inkscape:cy="117.64177"
   inkscape:window-x="826"
   inkscape:window-y="169"
   inkscape:window-maximized="0"
   inkscape:current-layer="Capa_1" />





<g
   id="g59">
</g>




<g
   id="g61">
</g>




<g
   id="g63">
</g>




<g
   id="g65">
</g>




<g
   id="g67">
</g>




<g
   id="g69">
</g>




<g
   id="g71">
</g>




<g
   id="g73">
</g>




<g
   id="g75">
</g>




<g
   id="g77">
</g>




<g
   id="g79">
</g>




<g
   id="g81">
</g>




<g
   id="g83">
</g>




<g
   id="g85">
</g>




<g
   id="g87">
</g>




<path
   sodipodi:nodetypes="ccssccc"
   inkscape:connector-curvature="0"
   id="path55-9"
   d="M 105.2706,40.117978 77.686602,20.677826 c -3.369,-2.073983 -8.059,-0.0069 -8.059,3.55221 V 63.1112 c 0,3.559077 4.69,5.626193 8.059,3.55221 L 105.2696,47.222399 c 2.834,-1.743485 2.834,-5.360078 0.001,-7.104421 z"
   style="fill:#999999;stroke-width:0.926518" />



<g
   aria-label="0.75x"
   transform="matrix(1.0265173,0,0,0.97416771,-3.6177379,-300.86448)"
   id="text1142"
   style="font-style:normal;font-variant:normal;font-weight:normal;font-stretch:normal;font-size:68.018px;line-height:1.25;font-family:'Arial Rounded MT Bold';-inkscape-font-specification:'Arial Rounded MT Bold, ';stroke-width:1.70045;fill:#999999">
  <path
   d="m 39.688686,415.09238 q 0,5.44675 -0.664238,9.36575 -0.664238,3.91901 -2.457682,7.10735 -2.25841,3.91901 -5.845296,6.04457 -3.586887,2.12556 -7.970859,2.12556 -5.04821,0 -9.066851,-2.85622 -3.9854294,-2.85622 -6.0113558,-7.90444 -1.029569,-2.75658 -1.527748,-6.07778 -0.4649674,-3.3544 -0.4649674,-7.24019 0,-5.015 0.5313914,-9.03364 0.53139,-4.01864 1.660595,-6.90808 1.9595034,-4.78252 5.6792368,-7.27341 3.752946,-2.5241 8.934003,-2.5241 3.420827,0 6.210628,1.1292 2.789801,1.09599 4.882151,3.25477 2.125563,2.12556 3.586887,5.28069 2.524105,5.47997 2.524105,15.50997 z m -9.100064,-0.66424 q 0,-6.07778 -0.730662,-9.93036 -0.730662,-3.8858 -2.457682,-5.8453 -1.727019,-1.99272 -4.782515,-1.99272 -4.383972,0 -6.110991,4.41719 -1.693807,4.41718 -1.693807,13.61688 0,6.24384 0.730662,10.22927 0.730661,3.98543 2.45768,6.04457 1.72702,2.02593 4.68288,2.02593 3.055496,0 4.782515,-2.12557 1.72702,-2.12556 2.42447,-6.07778 0.69745,-3.95221 0.69745,-10.36211 z"
   style="font-style:normal;font-variant:normal;font-weight:normal;font-stretch:normal;font-family:'Arial Rounded MT Bold';-inkscape-font-specification:'Arial Rounded MT Bold, ';stroke-width:1.70045;fill:#999999"
   id="path1251"
   inkscape:connector-curvature="0" />



  <path
   d="m 43.82959,439.80204 q -2.059139,0 -3.553675,-1.32848 -1.494536,-1.32847 -1.494536,-3.71973 0,-2.02593 1.428112,-3.48725 1.428112,-1.46133 3.520463,-1.46133 2.09235,0 3.553674,1.46133 1.494537,1.42811 1.494537,3.48725 0,2.35804 -1.494537,3.71973 -1.461324,1.32848 -3.454038,1.32848 z"
   style="font-style:normal;font-variant:normal;font-weight:normal;font-stretch:normal;font-family:'Arial Rounded MT Bold';-inkscape-font-specification:'Arial Rounded MT Bold, ';stroke-width:1.70045;fill:#999999"
   id="path1253"
   inkscape:connector-curvature="0" />



  <path
   d="m 53.29557,390.74804 h 22.119135 q 3.188343,0 4.616455,0.99636 1.428113,0.99636 1.428113,3.28798 0,1.3949 -1.693808,3.68652 -1.660596,2.29162 -3.81937,5.08142 -2.125562,2.75659 -4.417184,6.87487 -2.25841,4.11828 -4.151489,10.06321 -0.797086,2.62374 -1.129205,4.35076 -0.33212,1.72702 -0.730663,4.48361 -0.398543,2.75659 -0.69745,4.21791 -0.69745,3.38762 -1.992715,4.71609 -1.262052,1.29527 -3.387615,1.29527 -2.025926,0 -3.254767,-1.3949 -1.228841,-1.42811 -1.228841,-4.1847 0,-2.12557 0.896722,-5.77888 0.896721,-3.65331 2.922648,-8.73473 2.025927,-5.11463 5.048211,-10.46175 3.055496,-5.38033 7.240197,-10.69424 H 53.29557 q -2.7898,0 -4.184701,-0.99635 -1.361688,-1.02957 -1.361688,-3.18835 0,-2.29162 1.461324,-2.95586 1.461324,-0.66424 4.085065,-0.66424 z"
   style="font-style:normal;font-variant:normal;font-weight:normal;font-stretch:normal;font-family:'Arial Rounded MT Bold';-inkscape-font-specification:'Arial Rounded MT Bold, ';stroke-width:1.70045;fill:#999999"
   id="path1255"
   inkscape:connector-curvature="0" />



  <path
   d="M 106.77815,398.48642 H 91.002525 l -1.893075,10.76066 q 4.71608,-2.52411 8.7015,-2.52411 3.18833,0 5.94492,1.19563 2.7898,1.19563 4.88215,3.32119 2.09235,2.09235 3.28798,4.98179 1.19563,2.88944 1.19563,6.21063 0,4.81573 -2.15877,8.76794 -2.15878,3.95222 -6.24384,6.27705 -4.05186,2.32484 -9.365745,2.32484 -5.944925,0 -9.664645,-2.19199 -3.68651,-2.19198 -5.247472,-5.015 -1.527748,-2.85622 -1.527748,-4.98178 0,-1.29527 1.062781,-2.45769 1.095989,-1.16241 2.723374,-1.16241 2.789795,0 4.15148,3.22155 1.32847,2.95586 3.58687,4.61646 2.258405,1.62738 5.0482,1.62738 2.557315,0 4.4836,-1.32847 1.926285,-1.32848 2.955855,-3.65331 1.06278,-2.32484 1.06278,-5.2807 0,-3.18834 -1.1292,-5.44675 -1.12921,-2.25841 -3.022275,-3.3544 -1.893075,-1.12921 -4.21791,-1.12921 -2.856215,0 -4.08505,0.69745 -1.22884,0.69745 -3.55367,2.45768 -2.291615,1.72702 -3.78615,1.72702 -1.62738,0 -2.889425,-1.16242 -1.262055,-1.19562 -1.262055,-2.69016 0,-0.16606 0.365331,-2.25841 l 2.789799,-15.90851 q 0.46496,-2.85622 1.727015,-4.15149 1.26205,-1.29526 4.11826,-1.29526 h 17.53586 q 5.18106,0 5.18106,3.95222 0,1.72702 -1.26205,2.7898 -1.26205,1.06278 -3.71974,1.06278 z"
   style="font-style:normal;font-variant:normal;font-weight:normal;font-stretch:normal;font-family:'Arial Rounded MT Bold';-inkscape-font-specification:'Arial Rounded MT Bold, ';stroke-width:1.70045;fill:#999999"
   id="path1257"
   inkscape:connector-curvature="0" />



  <path
   d="m 134.17825,436.04909 -6.57595,-9.66466 -6.74202,9.66466 q -1.46133,2.02593 -2.4909,2.88944 -0.99635,0.86351 -2.55731,0.86351 -1.72702,0 -2.95586,-1.06278 -1.19563,-1.096 -1.19563,-2.4909 0,-1.42811 1.85986,-4.08506 l 8.20335,-11.75702 -7.27341,-9.79751 q -1.89308,-2.42447 -1.89308,-4.21792 0,-1.3949 1.1292,-2.42447 1.12921,-1.02956 2.95586,-1.02956 1.59418,0 2.62375,0.89672 1.06278,0.89672 2.45768,2.82301 l 5.87851,8.03728 5.71245,-8.03728 q 1.42811,-1.99272 2.45768,-2.85623 1.06278,-0.8635 2.62374,-0.8635 1.79344,0 2.95586,1.02956 1.19563,0.99636 1.19563,2.42447 0,1.02957 -0.49818,1.99272 -0.46497,0.92993 -1.46133,2.2252 l -7.2734,9.79751 8.20334,11.75702 q 1.92629,2.75659 1.92629,4.15149 0,1.42811 -1.19563,2.45768 -1.19563,1.02957 -2.95586,1.02957 -1.56096,0 -2.65695,-0.89672 -1.06278,-0.89672 -2.45769,-2.85623 z"
   style="font-style:normal;font-variant:normal;font-weight:normal;font-stretch:normal;font-family:'Arial Rounded MT Bold';-inkscape-font-specification:'Arial Rounded MT Bold, ';stroke-width:1.70045;fill:#999999"
   id="path1259"
   inkscape:connector-curvature="0" />



</g>









<path
   style="color:#000000;font-style:normal;font-variant:normal;font-weight:normal;font-stretch:normal;font-size:medium;line-height:normal;font-family:sans-serif;font-variant-ligatures:normal;font-variant-position:normal;font-variant-caps:normal;font-variant-numeric:normal;font-variant-alternates:normal;font-variant-east-asian:normal;font-feature-settings:normal;font-variation-settings:normal;text-indent:0;text-align:start;text-decoration:none;text-decoration-line:none;text-decoration-style:solid;text-decoration-color:#000000;letter-spacing:normal;word-spacing:normal;text-transform:none;writing-mode:lr-tb;direction:ltr;text-orientation:mixed;dominant-baseline:auto;baseline-shift:baseline;text-anchor:start;white-space:normal;shape-padding:0;shape-margin:0;inline-size:0;clip-rule:nonzero;display:inline;overflow:visible;visibility:visible;isolation:auto;mix-blend-mode:normal;color-interpolation:sRGB;color-interpolation-filters:linearRGB;solid-color:#000000;solid-opacity:1;vector-effect:none;fill:#999999;fill-opacity:1;fill-rule:nonzero;stroke:none;stroke-width:10.3;stroke-linecap:round;stroke-linejoin:miter;stroke-miterlimit:3.8;stroke-dasharray:none;stroke-dashoffset:0;stroke-opacity:1;filter-blend-mode:normal;filter-gaussianBlur-deviation:0;color-rendering:auto;image-rendering:auto;shape-rendering:auto;text-rendering:auto;enable-background:accumulate;stop-color:#000000;stop-opacity:1;opacity:1"
   d="M 55.876953 19.919922 A 5.1500001 5.1500001 0 0 0 50.728516 25.070312 L 50.728516 62.359375 A 5.1500001 5.1500001 0 0 0 55.876953 67.509766 A 5.1500001 5.1500001 0 0 0 61.027344 62.359375 L 61.027344 25.070312 A 5.1500001 5.1500001 0 0 0 55.876953 19.919922 z "
   id="path1383" />



</svg>
