<?xml version="1.0" encoding="UTF-8" standalone="no"?>
<svg
   xmlns:dc="http://purl.org/dc/elements/1.1/"
   xmlns:cc="http://creativecommons.org/ns#"
   xmlns:rdf="http://www.w3.org/1999/02/22-rdf-syntax-ns#"
   xmlns:svg="http://www.w3.org/2000/svg"
   xmlns="http://www.w3.org/2000/svg"
   xmlns:sodipodi="http://sodipodi.sourceforge.net/DTD/sodipodi-0.dtd"
   xmlns:inkscape="http://www.inkscape.org/namespaces/inkscape"
   version="1.1"
   id="Capa_1"
   x="0px"
   y="0px"
   viewBox="0 0 142.448 142.448"
   style="enable-background:new 0 0 142.448 142.448;"
   xml:space="preserve"
   sodipodi:docname="copy_tail.svg"
   inkscape:export-filename="goto_head.svg"
   inkscape:export-xdpi="96"
   inkscape:export-ydpi="96"
   inkscape:version="1.0.2 (e86c870879, 2021-01-15)"><metadata
   id="metadata56"><rdf:RDF><cc:Work
       rdf:about=""><dc:format>image/svg+xml</dc:format><dc:type
         rdf:resource="http://purl.org/dc/dcmitype/StillImage" /><dc:title></dc:title></cc:Work></rdf:RDF></metadata><defs
   id="defs340"><pattern
     id="EMFhbasepattern"
     patternUnits="userSpaceOnUse"
     width="6"
     height="6"
     x="0"
     y="0" /><pattern
     id="EMFhbasepattern-7"
     patternUnits="userSpaceOnUse"
     width="6"
     height="6"
     x="0"
     y="0" /></defs><sodipodi:namedview
   id="namedview338"
   pagecolor="#ffffff"
   bordercolor="#000000"
   borderopacity="0.25"
   inkscape:showpageshadow="2"
   inkscape:pageopacity="0.0"
   inkscape:pagecheckerboard="0"
   inkscape:deskcolor="#d1d1d1"
   showgrid="false"
   inkscape:zoom="2.7834719"
   inkscape:cx="16.408829"
   inkscape:cy="118.95784"
   inkscape:window-width="1920"
   inkscape:window-height="1017"
   inkscape:window-x="-8"
   inkscape:window-y="-8"
   inkscape:window-maximized="1"
   inkscape:current-layer="Capa_1"
   inkscape:document-rotation="0" />

<g
   id="g307">
</g>
<g
   id="g309">
</g>
<g
   id="g311">
</g>
<g
   id="g313">
</g>
<g
   id="g315">
</g>
<g
   id="g317">
</g>
<g
   id="g319">
</g>
<g
   id="g321">
</g>
<g
   id="g323">
</g>
<g
   id="g325">
</g>
<g
   id="g327">
</g>
<g
   id="g329">
</g>
<g
   id="g331">
</g>
<g
   id="g333">
</g>
<g
   id="g335">
</g>
<path
   style="fill:#1c1c1c;fill-opacity:1;fill-rule:evenodd;stroke:none"
   d="m 61.280136,60.31591 v 3.98061 4.01816 h -18.77645 v -4.01816 -3.98061 z"
   id="path1062" /><path
   style="fill:#1c1c1c;fill-opacity:1;fill-rule:evenodd;stroke:none"
   d="m 42.503686,68.31468 c -0.75106,0 -1.35191,-0.18776 -1.99031,-0.56329 -0.6384,-0.37553 -1.08903,-0.82617 -1.46456,-1.46456 -0.37553,-0.6384 -0.52574,-1.23925 -0.52574,-1.99031 h 3.98061 z"
   id="path1064" /><path
   style="fill:#1c1c1c;fill-opacity:1;fill-rule:evenodd;stroke:none"
   d="m 46.521846,64.29652 h -4.01816 -3.98061 V 19.23304 h 3.98061 4.01816 z"
   id="path1066" /><path
   style="fill:#1c1c1c;fill-opacity:1;fill-rule:evenodd;stroke:none"
   d="m 38.523076,19.23304 c 0,-0.75106 0.15021,-1.3519 0.52574,-1.9903 0.37553,-0.6384 0.82616,-1.08904 1.46456,-1.46456 0.6384,-0.37553 1.23925,-0.5633 1.99031,-0.5633 v 4.01816 z"
   id="path1068" /><path
   style="fill:#1c1c1c;fill-opacity:1;fill-rule:evenodd;stroke:none"
   d="m 42.503686,23.2512 v -4.01816 -4.01816 h 37.5529 v 4.01816 4.01816 z"
   id="path1070" /><path
   style="fill:#1c1c1c;fill-opacity:1;fill-rule:evenodd;stroke:none"
   d="m 80.056586,15.21488 c 0.75106,0 1.3519,0.18777 1.9903,0.5633 0.6384,0.37552 1.08904,0.82616 1.46456,1.46456 0.37553,0.6384 0.5633,1.23924 0.5633,1.9903 v 0 h -4.01816 z"
   id="path1072" /><path
   style="fill:#1c1c1c;fill-opacity:1;fill-rule:evenodd;stroke:none"
   d="m 76.075976,19.23304 h 3.98061 4.01816 v 45.06348 h -4.01816 -3.98061 z"
   id="path1074" /><path
   style="fill:#1c1c1c;fill-opacity:1;fill-rule:evenodd;stroke:none"
   d="m 84.074746,64.29652 c 0,0.75106 -0.18777,1.35191 -0.5633,1.99031 -0.37552,0.63839 -0.82616,1.08903 -1.46456,1.46456 -0.6384,0.37553 -1.23924,0.56329 -1.9903,0.56329 v -4.01816 z"
   id="path1076" /><path
   style="fill:#1c1c1c;fill-opacity:1;fill-rule:evenodd;stroke:none"
   d="m 80.056586,60.31591 v 3.98061 4.01816 h -18.77645 v -4.01816 -3.98061 z"
   id="path1078" /><path
   style="fill:#1c1c1c;fill-opacity:1;fill-rule:evenodd;stroke:none"
   d="m 61.280136,109.62288 v -4.01816 -3.98061 h 20.7292 v 3.98061 4.01816 z"
   id="path1080" /><path
   style="fill:#1c1c1c;fill-opacity:1;fill-rule:evenodd;stroke:none"
   d="m 82.272206,117.13346 23.095034,-10.28949 0.71351,-0.52574 0.26287,-0.6384 -0.26287,-0.78861 -0.60085,-0.48819 -23.207694,-10.28951 -0.30042,-0.11265 h -0.15022 l -0.48818,0.11265 -0.48819,0.26287 -0.30042,0.41309 -0.0751,0.48818 v 20.6541 l 0.0751,0.48819 0.30042,0.48819 0.48819,0.22532 0.48818,0.0751 h 0.15022 z"
   id="path1082" /><path
   style="fill:#1c1c1c;fill-opacity:1;fill-rule:evenodd;stroke:none"
   d="m 31.237816,109.62288 v -4.01816 -3.98061 h 7.96121 v 3.98061 4.01816 z"
   id="path1084" /><path
   style="fill:#1c1c1c;fill-opacity:1;fill-rule:evenodd;stroke:none"
   d="m 43.179636,109.62288 v -4.01816 -3.98061 h 7.96121 v 3.98061 4.01816 z"
   id="path1086" /><path
   style="fill:#1c1c1c;fill-opacity:1;fill-rule:evenodd;stroke:none"
   d="m 55.121456,109.62288 v -4.01816 -3.98061 h 7.96122 v 3.98061 4.01816 z"
   id="path1088" /><path
   style="fill:#1c1c1c;fill-opacity:1;fill-rule:evenodd;stroke:none"
   d="m 67.063276,109.62288 v -4.01816 -3.98061 h 7.96122 v 3.98061 4.01816 z"
   id="path1090" /><path
   style="fill:#1c1c1c;fill-opacity:1;fill-rule:evenodd;stroke:none"
   d="m 102.36301,90.58355 h 3.98061 4.01816 v 30.04233 h -4.01816 -3.98061 z"
   id="path1092" /><path
   style="fill:#1c1c1c;fill-opacity:1;fill-rule:evenodd;stroke:none"
   d="m 83.811876,75.33707 v 3.98061 4.01816 h -18.77645 v -4.01816 -3.98061 z"
   id="path1094" /><path
   style="fill:#1c1c1c;fill-opacity:1;fill-rule:evenodd;stroke:none"
   d="m 65.035426,83.33584 c -0.75106,0 -1.35191,-0.18776 -1.99031,-0.56329 -0.6384,-0.37553 -1.08903,-0.82617 -1.46456,-1.46456 -0.37553,-0.6384 -0.52574,-1.23925 -0.52574,-1.99031 h 3.98061 z"
   id="path1096" /><path
   style="fill:#1c1c1c;fill-opacity:1;fill-rule:evenodd;stroke:none"
   d="m 69.053586,79.31768 h -4.01816 -3.98061 V 34.2542 h 3.98061 4.01816 z"
   id="path1098" /><path
   style="fill:#1c1c1c;fill-opacity:1;fill-rule:evenodd;stroke:none"
   d="m 61.054816,34.2542 c 0,-0.75106 0.15021,-1.3519 0.52574,-1.9903 0.37553,-0.6384 0.82616,-1.08904 1.46456,-1.46456 0.6384,-0.37553 1.23925,-0.52575 1.99031,-0.52575 v 3.98061 z"
   id="path1100" /><path
   style="fill:#1c1c1c;fill-opacity:1;fill-rule:evenodd;stroke:none"
   d="M 65.035426,38.27236 V 34.2542 30.27359 h 37.552904 v 3.98061 4.01816 z"
   id="path1102" /><path
   style="fill:#1c1c1c;fill-opacity:1;fill-rule:evenodd;stroke:none"
   d="m 102.58833,30.27359 c 0.75106,0 1.3519,0.15022 1.9903,0.52575 0.6384,0.37552 1.08904,0.82616 1.46456,1.46456 0.37553,0.6384 0.5633,1.23924 0.5633,1.9903 v 0 h -4.01816 z"
   id="path1104" /><path
   style="fill:#1c1c1c;fill-opacity:1;fill-rule:evenodd;stroke:none"
   d="m 98.607716,34.2542 h 3.980614 4.01816 v 45.06348 h -4.01816 -3.980614 z"
   id="path1106" /><path
   style="fill:#1c1c1c;fill-opacity:1;fill-rule:evenodd;stroke:none"
   d="m 106.60649,79.31768 c 0,0.75106 -0.18777,1.35191 -0.5633,1.99031 -0.37552,0.63839 -0.82616,1.08903 -1.46456,1.46456 -0.6384,0.37553 -1.23924,0.56329 -1.9903,0.56329 v -4.01816 z"
   id="path1108" /><path
   style="fill:#1c1c1c;fill-opacity:1;fill-rule:evenodd;stroke:none"
   d="m 102.58833,75.33707 v 3.98061 4.01816 H 83.811876 v -4.01816 -3.98061 z"
   id="path1110" /></svg>
