<?xml version="1.0" encoding="UTF-8" standalone="no"?>
<svg
   xmlns:dc="http://purl.org/dc/elements/1.1/"
   xmlns:cc="http://creativecommons.org/ns#"
   xmlns:rdf="http://www.w3.org/1999/02/22-rdf-syntax-ns#"
   xmlns:svg="http://www.w3.org/2000/svg"
   xmlns="http://www.w3.org/2000/svg"
   xmlns:sodipodi="http://sodipodi.sourceforge.net/DTD/sodipodi-0.dtd"
   xmlns:inkscape="http://www.inkscape.org/namespaces/inkscape"
   version="1.1"
   id="Capa_1"
   x="0px"
   y="0px"
   viewBox="0 0 142.448 142.448"
   style="enable-background:new 0 0 142.448 142.448;"
   xml:space="preserve"
   sodipodi:docname="copy_head.svg"
   inkscape:export-filename="goto_head.svg"
   inkscape:export-xdpi="96"
   inkscape:export-ydpi="96"
   inkscape:version="1.0.2 (e86c870879, 2021-01-15)"><metadata
   id="metadata56"><rdf:RDF><cc:Work
       rdf:about=""><dc:format>image/svg+xml</dc:format><dc:type
         rdf:resource="http://purl.org/dc/dcmitype/StillImage" /><dc:title></dc:title></cc:Work></rdf:RDF></metadata><defs
   id="defs340"><pattern
     id="EMFhbasepattern"
     patternUnits="userSpaceOnUse"
     width="6"
     height="6"
     x="0"
     y="0" /></defs><sodipodi:namedview
   id="namedview338"
   pagecolor="#ffffff"
   bordercolor="#000000"
   borderopacity="0.25"
   inkscape:showpageshadow="2"
   inkscape:pageopacity="0.0"
   inkscape:pagecheckerboard="0"
   inkscape:deskcolor="#d1d1d1"
   showgrid="false"
   inkscape:zoom="2.7834719"
   inkscape:cx="16.408829"
   inkscape:cy="67.52344"
   inkscape:window-width="1920"
   inkscape:window-height="1017"
   inkscape:window-x="-8"
   inkscape:window-y="-8"
   inkscape:window-maximized="1"
   inkscape:current-layer="Capa_1"
   inkscape:document-rotation="0" />

<g
   id="g307">
</g>
<g
   id="g309">
</g>
<g
   id="g311">
</g>
<g
   id="g313">
</g>
<g
   id="g315">
</g>
<g
   id="g317">
</g>
<g
   id="g319">
</g>
<g
   id="g321">
</g>
<g
   id="g323">
</g>
<g
   id="g325">
</g>
<g
   id="g327">
</g>
<g
   id="g329">
</g>
<g
   id="g331">
</g>
<g
   id="g333">
</g>
<g
   id="g335">
</g>
<path
   style="fill:#1c1c1c;fill-opacity:1;fill-rule:evenodd;stroke:none"
   d="m 61.291934,60.36123 v 3.980607 4.01816 h -18.77645 v -4.01816 -3.980607 z"
   id="path892" /><path
   style="fill:#1c1c1c;fill-opacity:1;fill-rule:evenodd;stroke:none"
   d="m 42.515484,68.359997 c -0.75106,0 -1.3519,-0.187764 -1.9903,-0.563293 -0.6384,-0.375529 -1.08903,-0.826164 -1.46456,-1.464563 -0.37553,-0.638399 -0.52574,-1.239246 -0.52574,-1.990304 h 3.9806 z"
   id="path894" /><path
   style="fill:#1c1c1c;fill-opacity:1;fill-rule:evenodd;stroke:none"
   d="m 46.533644,64.341837 h -4.01816 -3.9806 V 19.278358 h 3.9806 4.01816 z"
   id="path896" /><path
   style="fill:#1c1c1c;fill-opacity:1;fill-rule:evenodd;stroke:none"
   d="m 38.534884,19.278358 c 0,-0.751058 0.15021,-1.351905 0.52574,-1.990304 0.37553,-0.638399 0.82616,-1.089034 1.46456,-1.464563 0.6384,-0.375529 1.23924,-0.563294 1.9903,-0.563294 v 4.018161 z"
   id="path898" /><path
   style="fill:#1c1c1c;fill-opacity:1;fill-rule:evenodd;stroke:none"
   d="m 42.515484,23.296518 v -4.01816 -4.018161 h 37.5529 v 4.018161 4.01816 z"
   id="path900" /><path
   style="fill:#1c1c1c;fill-opacity:1;fill-rule:evenodd;stroke:none"
   d="m 80.068384,15.260197 c 0.75106,0 1.35191,0.187765 1.99031,0.563294 0.6384,0.375529 1.08903,0.826164 1.46456,1.464563 0.37553,0.638399 0.56329,1.239246 0.56329,1.990304 v 0 h -4.01816 z"
   id="path902" /><path
   style="fill:#1c1c1c;fill-opacity:1;fill-rule:evenodd;stroke:none"
   d="m 76.087784,19.278358 h 3.9806 4.01816 v 45.063479 h -4.01816 -3.9806 z"
   id="path904" /><path
   style="fill:#1c1c1c;fill-opacity:1;fill-rule:evenodd;stroke:none"
   d="m 84.086544,64.341837 c 0,0.751058 -0.18776,1.351905 -0.56329,1.990304 -0.37553,0.638399 -0.82616,1.089034 -1.46456,1.464563 -0.6384,0.375529 -1.23925,0.563293 -1.99031,0.563293 v -4.01816 z"
   id="path906" /><path
   style="fill:#1c1c1c;fill-opacity:1;fill-rule:evenodd;stroke:none"
   d="m 80.068384,60.36123 v 3.980607 4.01816 h -18.77645 v -4.01816 -3.980607 z"
   id="path908" /><path
   style="fill:#1c1c1c;fill-opacity:1;fill-rule:evenodd;stroke:none"
   d="m 80.068384,101.66942 v 3.98061 4.01816 h -20.7292 v -4.01816 -3.98061 z"
   id="path910" /><path
   style="fill:#1c1c1c;fill-opacity:1;fill-rule:evenodd;stroke:none"
   d="m 59.076314,94.121289 -23.09503,10.289491 -0.71351,0.52574 -0.26287,0.6384 0.26287,0.78861 0.60085,0.48819 23.20769,10.28949 0.30042,0.11266 h 0.15022 l 0.48818,-0.11266 0.48819,-0.26287 0.30043,-0.41308 0.0751,-0.48819 V 95.322979 l -0.0751,-0.48819 -0.30043,-0.48818 -0.48819,-0.22532 -0.48818,-0.0751 h -0.15022 z"
   id="path912" /><path
   style="fill:#1c1c1c;fill-opacity:1;fill-rule:evenodd;stroke:none"
   d="m 110.1107,101.66942 v 3.98061 4.01816 h -7.96121 v -4.01816 -3.98061 z"
   id="path914" /><path
   style="fill:#1c1c1c;fill-opacity:1;fill-rule:evenodd;stroke:none"
   d="m 98.16888,101.66942 v 3.98061 4.01816 h -7.961206 v -4.01816 -3.98061 z"
   id="path916" /><path
   style="fill:#1c1c1c;fill-opacity:1;fill-rule:evenodd;stroke:none"
   d="m 86.227064,101.66942 v 3.98061 4.01816 h -7.96122 v -4.01816 -3.98061 z"
   id="path918" /><path
   style="fill:#1c1c1c;fill-opacity:1;fill-rule:evenodd;stroke:none"
   d="m 74.285244,101.66942 v 3.98061 4.01816 h -7.96122 v -4.01816 -3.98061 z"
   id="path920" /><path
   style="fill:#1c1c1c;fill-opacity:1;fill-rule:evenodd;stroke:none"
   d="m 30.986744,90.628869 h 4.01816 4.01816 v 30.042321 h -4.01816 -4.01816 z"
   id="path922" /><path
   style="fill:#1c1c1c;fill-opacity:1;fill-rule:evenodd;stroke:none"
   d="m 83.823674,75.38239 v 3.980609 4.01816 h -18.77645 v -4.01816 -3.980609 z"
   id="path924" /><path
   style="fill:#1c1c1c;fill-opacity:1;fill-rule:evenodd;stroke:none"
   d="m 65.047224,83.381159 c -0.75106,0 -1.3519,-0.18777 -1.9903,-0.56329 -0.6384,-0.37553 -1.08904,-0.82617 -1.46456,-1.46457 -0.37553,-0.6384 -0.52574,-1.23924 -0.52574,-1.9903 h 3.9806 z"
   id="path926" /><path
   style="fill:#1c1c1c;fill-opacity:1;fill-rule:evenodd;stroke:none"
   d="m 69.065384,79.362999 h -4.01816 -3.9806 V 34.299517 h 3.9806 4.01816 z"
   id="path928" /><path
   style="fill:#1c1c1c;fill-opacity:1;fill-rule:evenodd;stroke:none"
   d="m 61.066624,34.299517 c 0,-0.751058 0.15021,-1.351904 0.52574,-1.990303 0.37552,-0.6384 0.82616,-1.089034 1.46456,-1.464563 0.6384,-0.375529 1.23924,-0.525741 1.9903,-0.525741 v 3.980607 z"
   id="path930" /><path
   style="fill:#1c1c1c;fill-opacity:1;fill-rule:evenodd;stroke:none"
   d="M 65.047224,38.317678 V 34.299517 30.31891 h 37.552896 v 3.980607 4.018161 z"
   id="path932" /><path
   style="fill:#1c1c1c;fill-opacity:1;fill-rule:evenodd;stroke:none"
   d="m 102.60012,30.31891 c 0.75106,0 1.35191,0.150212 1.99031,0.525741 0.6384,0.375529 1.08903,0.826163 1.46456,1.464563 0.37553,0.638399 0.56329,1.239245 0.56329,1.990303 v 0 h -4.01816 z"
   id="path934" /><path
   style="fill:#1c1c1c;fill-opacity:1;fill-rule:evenodd;stroke:none"
   d="m 98.61952,34.299517 h 3.9806 4.01816 v 45.063482 h -4.01816 -3.9806 z"
   id="path936" /><path
   style="fill:#1c1c1c;fill-opacity:1;fill-rule:evenodd;stroke:none"
   d="m 106.61828,79.362999 c 0,0.75106 -0.18776,1.3519 -0.56329,1.9903 -0.37553,0.6384 -0.82616,1.08904 -1.46456,1.46457 -0.6384,0.37552 -1.23925,0.56329 -1.99031,0.56329 v -4.01816 z"
   id="path938" /><path
   style="fill:#1c1c1c;fill-opacity:1;fill-rule:evenodd;stroke:none"
   d="m 102.60012,75.38239 v 3.980609 4.01816 H 83.823674 v -4.01816 -3.980609 z"
   id="path940" /></svg>
