<?xml version="1.0" encoding="UTF-8" standalone="no"?>
<svg
   xmlns:dc="http://purl.org/dc/elements/1.1/"
   xmlns:cc="http://creativecommons.org/ns#"
   xmlns:rdf="http://www.w3.org/1999/02/22-rdf-syntax-ns#"
   xmlns:svg="http://www.w3.org/2000/svg"
   xmlns="http://www.w3.org/2000/svg"
   xmlns:sodipodi="http://sodipodi.sourceforge.net/DTD/sodipodi-0.dtd"
   xmlns:inkscape="http://www.inkscape.org/namespaces/inkscape"
   version="1.1"
   id="Capa_1"
   x="0px"
   y="0px"
   viewBox="0 0 142.448 142.448"
   style="enable-background:new 0 0 142.448 142.448;"
   xml:space="preserve"
   sodipodi:docname="ff1.25.svg"
   inkscape:version="1.0beta1 (fe3e306, 2019-09-17)"
   inkscape:export-filename="C:\Users\as.choi\slow0.5.png"
   inkscape:export-xdpi="96"
   inkscape:export-ydpi="96"><metadata
   id="metadata94">
  <rdf:RDF>
    <cc:Work
   rdf:about="">
      <dc:format>image/svg+xml</dc:format>

      <dc:type
   rdf:resource="http://purl.org/dc/dcmitype/StillImage" />

      <dc:title />

    </cc:Work>

  </rdf:RDF>

</metadata>

<defs
   id="defs92" />

<sodipodi:namedview
   pagecolor="#ffffff"
   bordercolor="#666666"
   inkscape:document-rotation="0"
   borderopacity="1"
   objecttolerance="10"
   gridtolerance="10"
   guidetolerance="10"
   inkscape:pageopacity="0"
   inkscape:pageshadow="2"
   inkscape:window-width="1402"
   inkscape:window-height="943"
   id="namedview90"
   showgrid="false"
   inkscape:snap-center="true"
   inkscape:snap-midpoints="true"
   inkscape:snap-object-midpoints="true"
   inkscape:object-paths="false"
   inkscape:zoom="1.1567514"
   inkscape:cx="156.58737"
   inkscape:cy="208.34266"
   inkscape:window-x="390"
   inkscape:window-y="23"
   inkscape:window-maximized="0"
   inkscape:current-layer="Capa_1" />



<g
   id="g59">
</g>


<g
   id="g61">
</g>


<g
   id="g63">
</g>


<g
   id="g65">
</g>


<g
   id="g67">
</g>


<g
   id="g69">
</g>


<g
   id="g71">
</g>


<g
   id="g73">
</g>


<g
   id="g75">
</g>


<g
   id="g77">
</g>


<g
   id="g79">
</g>


<g
   id="g81">
</g>


<g
   id="g83">
</g>


<g
   id="g85">
</g>


<g
   id="g87">
</g>


<path
   sodipodi:nodetypes="ccssccc"
   inkscape:connector-curvature="0"
   id="path55-9"
   d="m 81.270602,40.117978 -27.584,-19.440152 c -3.369,-2.073983 -8.059,-0.0069 -8.059,3.55221 V 63.1112 c 0,3.559077 4.69,5.626193 8.059,3.55221 l 27.583,-19.441011 c 2.834,-1.743485 2.834,-5.360078 10e-4,-7.104421 z"
   style="fill:#1d1d1b;stroke-width:0.926518" />


<g
   aria-label="1.25x"
   transform="matrix(1.0265173,0,0,0.97416771,-14,-241.56776)"
   id="text1142-0"
   style="font-style:normal;font-variant:normal;font-weight:normal;font-stretch:normal;font-size:68.018px;line-height:1.25;font-family:'Arial Rounded MT Bold';-inkscape-font-specification:'Arial Rounded MT Bold, ';stroke-width:1.70045">
  <path
   d="m 25.65395,373.5728 v -30.22284 q -8.435824,6.47632 -11.358472,6.47632 -1.3949,0 -2.490893,-1.09599 -1.062781,-1.1292 -1.062781,-2.59053 0,-1.69381 1.062781,-2.49089 1.062781,-0.79709 3.752946,-2.05914 4.01864,-1.89308 6.409897,-3.98543 2.424469,-2.09235 4.284337,-4.68288 1.859867,-2.59053 2.424469,-3.18834 0.564603,-0.59782 2.125563,-0.59782 1.760231,0 2.823012,1.36169 1.062781,1.36169 1.062781,3.75295 v 38.02764 q 0,6.67559 -4.550032,6.67559 -2.025926,0 -3.254767,-1.36169 -1.228841,-1.36169 -1.228841,-4.01864 z"
   style="font-style:normal;font-variant:normal;font-weight:normal;font-stretch:normal;font-family:'Arial Rounded MT Bold';-inkscape-font-specification:'Arial Rounded MT Bold, ';stroke-width:1.70045"
   id="path1240"
   inkscape:connector-curvature="0" />

  <path
   d="m 43.89904,378.95313 q -2.059138,0 -3.553674,-1.32848 -1.494536,-1.32847 -1.494536,-3.71973 0,-2.02593 1.428112,-3.48725 1.428112,-1.46132 3.520463,-1.46132 2.09235,0 3.553674,1.46132 1.494536,1.42811 1.494536,3.48725 0,2.35805 -1.494536,3.71973 -1.461324,1.32848 -3.454039,1.32848 z"
   style="font-style:normal;font-variant:normal;font-weight:normal;font-stretch:normal;font-family:'Arial Rounded MT Bold';-inkscape-font-specification:'Arial Rounded MT Bold, ';stroke-width:1.70045"
   id="path1242"
   inkscape:connector-curvature="0" />

  <path
   d="m 63.79327,370.28482 h 17.336619 q 2.590529,0 3.952218,1.06278 1.361688,1.06278 1.361688,2.88944 0,1.62738 -1.095993,2.75659 -1.062781,1.1292 -3.254768,1.1292 H 57.649066 q -2.490893,0 -3.885793,-1.36169 -1.394901,-1.3949 -1.394901,-3.25476 0,-1.19563 0.896722,-3.15513 0.896722,-1.99272 1.959503,-3.12192 4.417184,-4.58325 7.970859,-7.83802 3.553675,-3.28798 5.081423,-4.31754 2.723376,-1.9263 4.51682,-3.85259 1.826655,-1.9595 2.756589,-3.98543 0.963145,-2.05913 0.963145,-4.01864 0,-2.12556 -1.029569,-3.78616 -0.996358,-1.6938 -2.756589,-2.62374 -1.72702,-0.92993 -3.786158,-0.92993 -4.350761,0 -6.841654,3.81937 -0.332119,0.49818 -1.129205,2.72338 -0.763874,2.22519 -1.760232,3.42082 -0.963145,1.19563 -2.856224,1.19563 -1.660596,0 -2.756589,-1.09599 -1.095993,-1.09599 -1.095993,-2.98907 0,-2.29162 1.029569,-4.78252 1.02957,-2.49089 3.055496,-4.51682 2.059139,-2.02592 5.181059,-3.25477 3.155131,-1.26205 7.373044,-1.26205 5.081423,0 8.66831,1.59417 2.324833,1.06278 4.085065,2.92265 1.760231,1.85987 2.723377,4.31755 0.996357,2.42447 0.996357,5.04821 0,4.11828 -2.059138,7.50589 -2.025927,3.35441 -4.15149,5.2807 -2.125562,1.89308 -7.140561,5.97814 -4.981787,4.08507 -6.841654,6.34348 -0.797086,0.89672 -1.627384,2.15877 z"
   style="font-style:normal;font-variant:normal;font-weight:normal;font-stretch:normal;font-family:'Arial Rounded MT Bold';-inkscape-font-specification:'Arial Rounded MT Bold, ';stroke-width:1.70045"
   id="path1244"
   inkscape:connector-curvature="0" />

  <path
   d="M 114.64097,337.63751 H 98.865315 l -1.893075,10.76066 q 4.71608,-2.5241 8.70151,-2.5241 3.18834,0 5.94493,1.19562 2.7898,1.19563 4.88215,3.3212 2.09235,2.09235 3.28798,4.98178 1.19563,2.88944 1.19563,6.21063 0,4.81573 -2.15877,8.76795 -2.15878,3.95221 -6.24384,6.27705 -4.05186,2.32483 -9.36576,2.32483 -5.94492,0 -9.66465,-2.19199 -3.68651,-2.19198 -5.247471,-5.01499 -1.527748,-2.85623 -1.527748,-4.98179 0,-1.29527 1.062781,-2.45768 1.095998,-1.16242 2.723373,-1.16242 2.789795,0 4.15148,3.22156 1.32847,2.95586 3.58687,4.61645 2.258405,1.62739 5.048215,1.62739 2.55731,0 4.4836,-1.32848 1.92629,-1.32848 2.95586,-3.65331 1.06279,-2.32484 1.06279,-5.2807 0,-3.18834 -1.12921,-5.44675 -1.12921,-2.25841 -3.02228,-3.3544 -1.89308,-1.12921 -4.21792,-1.12921 -2.85622,0 -4.085055,0.69745 -1.22884,0.69745 -3.55367,2.45768 -2.291615,1.72702 -3.78615,1.72702 -1.62738,0 -2.889425,-1.16241 -1.262054,-1.19563 -1.262054,-2.69017 0,-0.16606 0.365331,-2.25841 l 2.789798,-15.9085 q 0.46496,-2.85623 1.727015,-4.15149 1.26205,-1.29527 4.11826,-1.29527 h 17.53588 q 5.18106,0 5.18106,3.95222 0,1.72702 -1.26205,2.7898 -1.26205,1.06278 -3.71973,1.06278 z"
   style="font-style:normal;font-variant:normal;font-weight:normal;font-stretch:normal;font-family:'Arial Rounded MT Bold';-inkscape-font-specification:'Arial Rounded MT Bold, ';stroke-width:1.70045"
   id="path1246"
   inkscape:connector-curvature="0" />

  <path
   d="m 142.04107,375.20018 -6.57596,-9.66466 -6.74202,9.66466 q -1.46133,2.02593 -2.49089,2.88944 -0.99636,0.86351 -2.55732,0.86351 -1.72702,0 -2.95586,-1.06278 -1.19563,-1.09599 -1.19563,-2.49089 0,-1.42812 1.85987,-4.08507 l 8.20334,-11.75702 -7.27341,-9.79751 q -1.89308,-2.42447 -1.89308,-4.21791 0,-1.3949 1.12921,-2.42447 1.1292,-1.02957 2.95586,-1.02957 1.59417,0 2.62374,0.89672 1.06278,0.89672 2.45768,2.82301 l 5.87851,8.03728 5.71245,-8.03728 q 1.42811,-1.99271 2.45768,-2.85622 1.06278,-0.86351 2.62374,-0.86351 1.79344,0 2.95586,1.02957 1.19563,0.99635 1.19563,2.42447 0,1.02957 -0.49818,1.99271 -0.46497,0.92993 -1.46133,2.2252 l -7.2734,9.79751 8.20334,11.75702 q 1.92629,2.75659 1.92629,4.15149 0,1.42811 -1.19563,2.45768 -1.19563,1.02957 -2.95586,1.02957 -1.56096,0 -2.65695,-0.89672 -1.06278,-0.89672 -2.45768,-2.85623 z"
   style="font-style:normal;font-variant:normal;font-weight:normal;font-stretch:normal;font-family:'Arial Rounded MT Bold';-inkscape-font-specification:'Arial Rounded MT Bold, ';stroke-width:1.70045"
   id="path1248"
   inkscape:connector-curvature="0" />

</g>






<path
   style="fill:#1d1d1b;stroke-width:0.926518"
   d="m 105.79737,40.11862 -27.584,-19.44015 c -3.369,-2.07398 -8.059,-0.007 -8.059,3.55221 v 38.88117 c 0,3.55907 4.69,5.62619 8.059,3.55221 l 27.583,-19.44101 c 2.834,-1.74349 2.834,-5.36008 0.001,-7.10443 z"
   id="path55-9-8"
   inkscape:connector-curvature="0"
   sodipodi:nodetypes="ccssccc" />

</svg>
