<?xml version="1.0" encoding="UTF-8" standalone="no"?>
<svg
   xmlns:dc="http://purl.org/dc/elements/1.1/"
   xmlns:cc="http://creativecommons.org/ns#"
   xmlns:rdf="http://www.w3.org/1999/02/22-rdf-syntax-ns#"
   xmlns:svg="http://www.w3.org/2000/svg"
   xmlns="http://www.w3.org/2000/svg"
   xmlns:sodipodi="http://sodipodi.sourceforge.net/DTD/sodipodi-0.dtd"
   xmlns:inkscape="http://www.inkscape.org/namespaces/inkscape"
   version="1.1"
   id="Capa_1"
   x="0px"
   y="0px"
   viewBox="0 0 142.448 142.448"
   style="enable-background:new 0 0 142.448 142.448;"
   xml:space="preserve"
   sodipodi:docname="ff2.0.svg"
   inkscape:version="1.0beta1 (fe3e306, 2019-09-17)"
   inkscape:export-filename="C:\Users\as.choi\slow0.5.png"
   inkscape:export-xdpi="96"
   inkscape:export-ydpi="96"><metadata
   id="metadata94">
  <rdf:RDF>
    <cc:Work
   rdf:about="">
      <dc:format>image/svg+xml</dc:format>

      <dc:type
   rdf:resource="http://purl.org/dc/dcmitype/StillImage" />

      <dc:title />

    </cc:Work>

  </rdf:RDF>

</metadata>

<defs
   id="defs92" />

<sodipodi:namedview
   pagecolor="#ffffff"
   bordercolor="#666666"
   inkscape:document-rotation="0"
   borderopacity="1"
   objecttolerance="10"
   gridtolerance="10"
   guidetolerance="10"
   inkscape:pageopacity="0"
   inkscape:pageshadow="2"
   inkscape:window-width="1402"
   inkscape:window-height="943"
   id="namedview90"
   showgrid="false"
   inkscape:snap-center="true"
   inkscape:snap-midpoints="true"
   inkscape:snap-object-midpoints="true"
   inkscape:object-paths="false"
   inkscape:zoom="1.1567514"
   inkscape:cx="77.497671"
   inkscape:cy="97.686791"
   inkscape:window-x="390"
   inkscape:window-y="23"
   inkscape:window-maximized="0"
   inkscape:current-layer="Capa_1" />



<g
   id="g59">
</g>


<g
   id="g61">
</g>


<g
   id="g63">
</g>


<g
   id="g65">
</g>


<g
   id="g67">
</g>


<g
   id="g69">
</g>


<g
   id="g71">
</g>


<g
   id="g73">
</g>


<g
   id="g75">
</g>


<g
   id="g77">
</g>


<g
   id="g79">
</g>


<g
   id="g81">
</g>


<g
   id="g83">
</g>


<g
   id="g85">
</g>


<g
   id="g87">
</g>


<path
   sodipodi:nodetypes="ccssccc"
   inkscape:connector-curvature="0"
   id="path55-9"
   d="m 81.270602,40.117978 -27.584,-19.440152 c -3.369,-2.073983 -8.059,-0.0069 -8.059,3.55221 V 63.1112 c 0,3.559077 4.69,5.626193 8.059,3.55221 l 27.583,-19.441011 c 2.834,-1.743485 2.834,-5.360078 10e-4,-7.104421 z"
   style="fill:#1d1d1b;stroke-width:0.926518" />




<g
   aria-label="2.0x"
   transform="matrix(1.0265173,0,0,0.97416771,14,-184)"
   id="text1142-0-0"
   style="font-style:normal;font-variant:normal;font-weight:normal;font-stretch:normal;font-size:68.018px;line-height:1.25;font-family:'Arial Rounded MT Bold';-inkscape-font-specification:'Arial Rounded MT Bold, ';stroke-width:1.70045">
  <path
   d="m 13.691636,311.37119 h 17.336617 q 2.59053,0 3.952218,1.06278 1.361688,1.06278 1.361688,2.88943 0,1.62739 -1.095993,2.75659 -1.062781,1.12921 -3.254767,1.12921 H 7.5474322 q -2.4908934,0 -3.8857938,-1.36169 -1.3949,-1.3949 -1.3949,-3.25477 0,-1.19563 0.896721,-3.15513 0.896722,-1.99271 1.9595034,-3.12192 4.4171838,-4.58324 7.9708582,-7.83801 3.553674,-3.28798 5.081422,-4.31755 2.723377,-1.92629 4.51682,-3.85258 1.826655,-1.9595 2.756589,-3.98543 0.963145,-2.05914 0.963145,-4.01864 0,-2.12556 -1.029569,-3.78616 -0.996357,-1.69381 -2.756589,-2.62374 -1.727019,-0.92994 -3.786158,-0.92994 -4.35076,0 -6.841653,3.81937 -0.332119,0.49818 -1.129205,2.72338 -0.763874,2.2252 -1.7602314,3.42083 -0.963145,1.19563 -2.8562244,1.19563 -1.6605954,0 -2.7565888,-1.096 -1.095993,-1.09599 -1.095993,-2.98907 0,-2.29162 1.02957,-4.78251 1.0295684,-2.4909 3.0554958,-4.51682 2.0591384,-2.02593 5.1810578,-3.25477 3.155131,-1.26205 7.373044,-1.26205 5.081422,0 8.668309,1.59417 2.324834,1.06278 4.085065,2.92265 1.760232,1.85986 2.723377,4.31755 0.996358,2.42446 0.996358,5.04821 0,4.11827 -2.059139,7.50589 -2.025927,3.3544 -4.151489,5.28069 -2.125563,1.89308 -7.140561,5.97815 -4.981787,4.08506 -6.841654,6.34347 -0.797086,0.89672 -1.627383,2.15878 z"
   style="font-style:normal;font-variant:normal;font-weight:normal;font-stretch:normal;font-family:'Arial Rounded MT Bold';-inkscape-font-specification:'Arial Rounded MT Bold, ';stroke-width:1.70045"
   id="path1231"
   inkscape:connector-curvature="0" />

  <path
   d="m 43.748707,320.0395 q -2.059139,0 -3.553675,-1.32848 -1.494536,-1.32848 -1.494536,-3.71973 0,-2.02593 1.428112,-3.48726 1.428112,-1.46132 3.520463,-1.46132 2.09235,0 3.553674,1.46132 1.494537,1.42812 1.494537,3.48726 0,2.35804 -1.494537,3.71973 -1.461324,1.32848 -3.454038,1.32848 z"
   style="font-style:normal;font-variant:normal;font-weight:normal;font-stretch:normal;font-family:'Arial Rounded MT Bold';-inkscape-font-specification:'Arial Rounded MT Bold, ';stroke-width:1.70045"
   id="path1233"
   inkscape:connector-curvature="0" />

  <path
   d="m 83.7141,295.32983 q 0,5.44676 -0.664239,9.36576 -0.664238,3.91901 -2.457681,7.10735 -2.25841,3.91901 -5.845297,6.04457 -3.586886,2.12556 -7.970859,2.12556 -5.048211,0 -9.066852,-2.85622 -3.98543,-2.85623 -6.011356,-7.90444 -1.02957,-2.75659 -1.527748,-6.07778 -0.464967,-3.3544 -0.464967,-7.24019 0,-5.015 0.53139,-9.03365 0.531391,-4.01864 1.660596,-6.90807 1.959503,-4.78252 5.679237,-7.27341 3.752946,-2.52411 8.934005,-2.52411 3.420827,0 6.210628,1.12921 2.7898,1.09599 4.882151,3.25477 2.125562,2.12556 3.586886,5.28069 2.524106,5.47996 2.524106,15.50996 z m -9.100064,-0.66424 q 0,-6.07778 -0.730663,-9.93036 -0.730662,-3.88579 -2.457681,-5.84529 -1.72702,-1.99272 -4.782516,-1.99272 -4.383972,0 -6.110992,4.41719 -1.693807,4.41718 -1.693807,13.61688 0,6.24384 0.730662,10.22927 0.730662,3.98543 2.457682,6.04457 1.727019,2.02592 4.682879,2.02592 3.055496,0 4.782516,-2.12556 1.727019,-2.12556 2.424469,-6.07778 0.697451,-3.95222 0.697451,-10.36212 z"
   style="font-style:normal;font-variant:normal;font-weight:normal;font-stretch:normal;font-family:'Arial Rounded MT Bold';-inkscape-font-specification:'Arial Rounded MT Bold, ';stroke-width:1.70045"
   id="path1235"
   inkscape:connector-curvature="0" />

  <path
   d="m 109.29841,316.28655 -6.57596,-9.66467 -6.742005,9.66467 q -1.46132,2.02593 -2.490885,2.88944 -0.99636,0.86351 -2.557315,0.86351 -1.727017,0 -2.955858,-1.06279 -1.195628,-1.09599 -1.195628,-2.49089 0,-1.42811 1.859867,-4.08506 l 8.203324,-11.75702 -7.273391,-9.79752 q -1.893079,-2.42447 -1.893079,-4.21791 0,-1.3949 1.129205,-2.42447 1.129205,-1.02957 2.95586,-1.02957 1.594165,0 2.62373,0.89672 1.06278,0.89673 2.457675,2.82302 l 5.8785,8.03728 5.71245,-8.03728 q 1.42811,-1.99272 2.45768,-2.85623 1.06278,-0.86351 2.62374,-0.86351 1.79345,0 2.95586,1.02957 1.19563,0.99636 1.19563,2.42447 0,1.02957 -0.49818,1.99272 -0.46496,0.92993 -1.46132,2.22519 l -7.27341,9.79752 8.20334,11.75702 q 1.92629,2.75658 1.92629,4.15148 0,1.42812 -1.19562,2.45769 -1.19563,1.02957 -2.95586,1.02957 -1.56096,0 -2.65696,-0.89673 -1.06278,-0.89672 -2.45768,-2.85622 z"
   style="font-style:normal;font-variant:normal;font-weight:normal;font-stretch:normal;font-family:'Arial Rounded MT Bold';-inkscape-font-specification:'Arial Rounded MT Bold, ';stroke-width:1.70045"
   id="path1237"
   inkscape:connector-curvature="0" />

</g>




<path
   style="fill:#1d1d1b;stroke-width:0.926518"
   d="m 105.79737,40.11862 -27.584,-19.44015 c -3.369,-2.07398 -8.059,-0.007 -8.059,3.55221 v 38.88117 c 0,3.55907 4.69,5.62619 8.059,3.55221 l 27.583,-19.44101 c 2.834,-1.74349 2.834,-5.36008 0.001,-7.10443 z"
   id="path55-9-8"
   inkscape:connector-curvature="0"
   sodipodi:nodetypes="ccssccc" />

</svg>
