<?xml version="1.0" encoding="UTF-8" standalone="no"?>
<svg
   xmlns:dc="http://purl.org/dc/elements/1.1/"
   xmlns:cc="http://creativecommons.org/ns#"
   xmlns:rdf="http://www.w3.org/1999/02/22-rdf-syntax-ns#"
   xmlns:svg="http://www.w3.org/2000/svg"
   xmlns="http://www.w3.org/2000/svg"
   xmlns:sodipodi="http://sodipodi.sourceforge.net/DTD/sodipodi-0.dtd"
   xmlns:inkscape="http://www.inkscape.org/namespaces/inkscape"
   version="1.1"
   id="Capa_1"
   x="0px"
   y="0px"
   viewBox="0 0 142.448 142.448"
   style="enable-background:new 0 0 142.448 142.448;"
   xml:space="preserve"
   sodipodi:docname="paste.svg"
   inkscape:export-filename="goto_head.svg"
   inkscape:export-xdpi="96"
   inkscape:export-ydpi="96"
   inkscape:version="1.0.2 (e86c870879, 2021-01-15)"><metadata
   id="metadata56"><rdf:RDF><cc:Work
       rdf:about=""><dc:format>image/svg+xml</dc:format><dc:type
         rdf:resource="http://purl.org/dc/dcmitype/StillImage" /><dc:title></dc:title></cc:Work></rdf:RDF></metadata><defs
   id="defs340"><pattern
     id="EMFhbasepattern"
     patternUnits="userSpaceOnUse"
     width="6"
     height="6"
     x="0"
     y="0" /><pattern
     id="EMFhbasepattern-7"
     patternUnits="userSpaceOnUse"
     width="6"
     height="6"
     x="0"
     y="0" /><pattern
     id="EMFhbasepattern-3"
     patternUnits="userSpaceOnUse"
     width="6"
     height="6"
     x="0"
     y="0" /></defs><sodipodi:namedview
   id="namedview338"
   pagecolor="#ffffff"
   bordercolor="#000000"
   borderopacity="0.25"
   inkscape:showpageshadow="2"
   inkscape:pageopacity="0.0"
   inkscape:pagecheckerboard="0"
   inkscape:deskcolor="#d1d1d1"
   showgrid="false"
   inkscape:zoom="2.7834719"
   inkscape:cx="16.408829"
   inkscape:cy="102.92187"
   inkscape:window-width="1920"
   inkscape:window-height="1017"
   inkscape:window-x="-8"
   inkscape:window-y="-8"
   inkscape:window-maximized="1"
   inkscape:current-layer="Capa_1"
   inkscape:document-rotation="0" />

<g
   id="g307">
</g>
<g
   id="g309">
</g>
<g
   id="g311">
</g>
<g
   id="g313">
</g>
<g
   id="g315">
</g>
<g
   id="g317">
</g>
<g
   id="g319">
</g>
<g
   id="g321">
</g>
<g
   id="g323">
</g>
<g
   id="g325">
</g>
<g
   id="g327">
</g>
<g
   id="g329">
</g>
<g
   id="g331">
</g>
<g
   id="g333">
</g>
<g
   id="g335">
</g>
<path
   style="fill:#1c1c1c;fill-opacity:1;fill-rule:evenodd;stroke:none"
   d="m 61.349223,60.36615 v 3.99347 4.03115 H 42.512087 v -4.03115 -3.99347 z"
   id="path1147" /><path
   style="fill:#1c1c1c;fill-opacity:1;fill-rule:evenodd;stroke:none"
   d="m 42.512087,68.39077 c -0.753486,0 -1.356274,-0.18837 -1.996736,-0.56511 -0.640463,-0.37675 -1.092554,-0.82884 -1.469297,-1.4693 -0.376743,-0.64046 -0.52744,-1.24325 -0.52744,-1.99674 h 3.993473 z"
   id="path1149" /><path
   style="fill:#1c1c1c;fill-opacity:1;fill-rule:evenodd;stroke:none"
   d="M 46.543234,64.35962 H 42.512087 38.518614 V 19.1505 h 3.993473 4.031147 z"
   id="path1151" /><path
   style="fill:#1c1c1c;fill-opacity:1;fill-rule:evenodd;stroke:none"
   d="m 38.518614,19.1505 c 0,-0.75349 0.150697,-1.35628 0.52744,-1.99674 0.376743,-0.64046 0.828834,-1.09256 1.469297,-1.4693 0.640462,-0.37674 1.24325,-0.56511 1.996736,-0.56511 v 4.03115 z"
   id="path1153" /><path
   style="fill:#1c1c1c;fill-opacity:1;fill-rule:evenodd;stroke:none"
   d="M 42.512087,23.18164 V 19.1505 15.11935 H 80.18636 v 4.03115 4.03114 z"
   id="path1155" /><path
   style="fill:#1c1c1c;fill-opacity:1;fill-rule:evenodd;stroke:none"
   d="m 80.18636,15.11935 c 0.753485,0 1.356274,0.18837 1.996736,0.56511 0.640463,0.37674 1.092554,0.82884 1.469297,1.4693 0.376743,0.64046 0.565114,1.24325 0.565114,1.99673 v 0 H 80.18636 Z"
   id="path1157" /><path
   style="fill:#1c1c1c;fill-opacity:1;fill-rule:evenodd;stroke:none"
   d="m 76.192887,19.1505 h 3.993473 4.031147 V 64.35962 H 80.18636 76.192887 Z"
   id="path1159" /><path
   style="fill:#1c1c1c;fill-opacity:1;fill-rule:evenodd;stroke:none"
   d="m 84.217507,64.35962 c 0,0.75349 -0.188371,1.35628 -0.565114,1.99674 -0.376743,0.64046 -0.828834,1.09255 -1.469297,1.4693 -0.640462,0.37674 -1.243251,0.56511 -1.996736,0.56511 v -4.03115 z"
   id="path1161" /><path
   style="fill:#1c1c1c;fill-opacity:1;fill-rule:evenodd;stroke:none"
   d="m 80.18636,60.36615 v 3.99347 4.03115 H 61.349223 v -4.03115 -3.99347 z"
   id="path1163" /><path
   style="fill:#1c1c1c;fill-opacity:1;fill-rule:evenodd;stroke:none"
   d="m 34.977232,121.13476 v -4.03115 -3.99347 h 7.986946 v 3.99347 4.03115 z"
   id="path1165" /><path
   style="fill:#1c1c1c;fill-opacity:1;fill-rule:evenodd;stroke:none"
   d="m 46.957651,121.13476 v -4.03115 -3.99347 h 7.986946 v 3.99347 4.03115 z"
   id="path1167" /><path
   style="fill:#1c1c1c;fill-opacity:1;fill-rule:evenodd;stroke:none"
   d="m 58.93807,121.13476 v -4.03115 -3.99347 h 7.986946 v 3.99347 4.03115 z"
   id="path1169" /><path
   style="fill:#1c1c1c;fill-opacity:1;fill-rule:evenodd;stroke:none"
   d="m 70.918489,121.13476 v -4.03115 -3.99347 h 7.986945 v 3.99347 4.03115 z"
   id="path1171" /><path
   style="fill:#1c1c1c;fill-opacity:1;fill-rule:evenodd;stroke:none"
   d="m 83.953787,75.43586 v 3.99347 4.03115 H 65.11665 v -4.03115 -3.99347 z"
   id="path1173" /><path
   style="fill:#1c1c1c;fill-opacity:1;fill-rule:evenodd;stroke:none"
   d="m 65.11665,83.46048 c -0.753485,0 -1.356273,-0.18837 -1.996736,-0.56512 -0.640463,-0.37674 -1.092554,-0.82883 -1.469297,-1.46929 -0.376742,-0.64047 -0.527439,-1.24326 -0.527439,-1.99674 h 3.993472 z"
   id="path1175" /><path
   style="fill:#1c1c1c;fill-opacity:1;fill-rule:evenodd;stroke:none"
   d="M 69.147798,79.42933 H 65.11665 61.123178 V 34.2202 h 3.993472 4.031148 z"
   id="path1177" /><path
   style="fill:#1c1c1c;fill-opacity:1;fill-rule:evenodd;stroke:none"
   d="m 61.123178,34.2202 c 0,-0.75348 0.150697,-1.35627 0.527439,-1.99673 0.376743,-0.64046 0.828834,-1.09256 1.469297,-1.4693 0.640463,-0.37674 1.243251,-0.52744 1.996736,-0.52744 v 3.99347 z"
   id="path1179" /><path
   style="fill:#1c1c1c;fill-opacity:1;fill-rule:evenodd;stroke:none"
   d="M 65.11665,38.25135 V 34.2202 30.22673 h 37.67428 v 3.99347 4.03115 z"
   id="path1181" /><path
   style="fill:#1c1c1c;fill-opacity:1;fill-rule:evenodd;stroke:none"
   d="m 102.79093,30.22673 c 0.75348,0 1.35627,0.1507 1.99673,0.52744 0.64047,0.37674 1.09256,0.82884 1.4693,1.4693 0.37674,0.64046 0.56511,1.24325 0.56511,1.99673 v 0 h -4.03114 z"
   id="path1183" /><path
   style="fill:#1c1c1c;fill-opacity:1;fill-rule:evenodd;stroke:none"
   d="m 98.797456,34.2202 h 3.993474 4.03115 v 45.20913 h -4.03115 -3.993474 z"
   id="path1185" /><path
   style="fill:#1c1c1c;fill-opacity:1;fill-rule:evenodd;stroke:none"
   d="m 106.82208,79.42933 c 0,0.75348 -0.18838,1.35627 -0.56512,1.99674 -0.37674,0.64046 -0.82883,1.09255 -1.4693,1.46929 -0.64046,0.37675 -1.24325,0.56512 -1.99673,0.56512 v -4.03115 z"
   id="path1187" /><path
   style="fill:#1c1c1c;fill-opacity:1;fill-rule:evenodd;stroke:none"
   d="m 102.79093,75.43586 v 3.99347 4.03115 H 83.953787 v -4.03115 -3.99347 z"
   id="path1189" /><path
   style="fill:#1c1c1c;fill-opacity:1;fill-rule:evenodd;stroke:none"
   d="m 76.418932,121.13476 v -4.03115 -3.99347 h 15.06971 v 3.99347 4.03115 z"
   id="path1191" /><path
   style="fill:#1c1c1c;fill-opacity:1;fill-rule:evenodd;stroke:none"
   d="m 95.519789,117.10361 c 0,0.75349 -0.188371,1.35628 -0.565114,1.99674 -0.376743,0.64046 -0.828834,1.09255 -1.469297,1.4693 -0.640462,0.37674 -1.243251,0.56511 -1.996736,0.56511 v -4.03115 z"
   id="path1193" /><path
   style="fill:#1c1c1c;fill-opacity:1;fill-rule:evenodd;stroke:none"
   d="m 95.519789,117.10361 h -4.031147 -3.993473 v -9.68229 h 3.993473 4.031147 z"
   id="path1195" /><path
   style="fill:#1c1c1c;fill-opacity:1;fill-rule:evenodd;stroke:none"
   d="M 101.17093,107.19528 92.505847,87.75534 92.09143,87.19023 91.526316,86.96418 90.885853,87.19023 90.471436,87.68 81.844028,107.19528 81.731005,107.459 v 0.1507 l 0.113023,0.37674 0.226045,0.41442 0.301395,0.26372 0.414417,0.0753 H 100.1914 l 0.41442,-0.0753 0.37674,-0.26372 0.18837,-0.41442 0.0754,-0.37674 v -0.1507 z"
   id="path1197" /></svg>
