<?xml version="1.0" encoding="UTF-8" standalone="no"?>
<!-- Generator: Adobe Illustrator 18.0.0, SVG Export Plug-In . SVG Version: 6.00 Build 0)  -->

<svg
   version="1.1"
   id="Capa_1"
   x="0px"
   y="0px"
   viewBox="0 0 142.448 142.448"
   style="enable-background:new 0 0 142.448 142.448;"
   xml:space="preserve"
   sodipodi:docname="rewind_10sec.svg"
   inkscape:export-filename="goto_head.svg"
   inkscape:export-xdpi="96"
   inkscape:export-ydpi="96"
   inkscape:version="1.2.2 (b0a8486, 2022-12-01)"
   xmlns:inkscape="http://www.inkscape.org/namespaces/inkscape"
   xmlns:sodipodi="http://sodipodi.sourceforge.net/DTD/sodipodi-0.dtd"
   xmlns="http://www.w3.org/2000/svg"
   xmlns:svg="http://www.w3.org/2000/svg"><defs
   id="defs340" /><sodipodi:namedview
   id="namedview338"
   pagecolor="#ffffff"
   bordercolor="#000000"
   borderopacity="0.25"
   inkscape:showpageshadow="2"
   inkscape:pageopacity="0.0"
   inkscape:pagecheckerboard="0"
   inkscape:deskcolor="#d1d1d1"
   showgrid="false"
   inkscape:zoom="3.9364237"
   inkscape:cx="85.86474"
   inkscape:cy="74.051988"
   inkscape:window-width="1461"
   inkscape:window-height="999"
   inkscape:window-x="26"
   inkscape:window-y="23"
   inkscape:window-maximized="0"
   inkscape:current-layer="Capa_1" />

<g
   id="g307">
</g>
<g
   id="g309">
</g>
<g
   id="g311">
</g>
<g
   id="g313">
</g>
<g
   id="g315">
</g>
<g
   id="g317">
</g>
<g
   id="g319">
</g>
<g
   id="g321">
</g>
<g
   id="g323">
</g>
<g
   id="g325">
</g>
<g
   id="g327">
</g>
<g
   id="g329">
</g>
<g
   id="g331">
</g>
<g
   id="g333">
</g>
<g
   id="g335">
</g>
<path
   style="fill:#000000;stroke-width:0.267372"
   d="M 65.546024,133.11753 C 45.949822,131.1226 29.203074,119.94517 20.149119,102.81785 16.183133,95.315408 13.675694,85.53528 13.675694,77.568613 c 0,-2.353258 0.08797,-2.90746 0.622114,-3.919221 0.955528,-1.809918 2.48206,-2.745421 4.67002,-2.861932 1.497252,-0.07973 1.99184,0.01057 2.996424,0.547185 0.661747,0.353466 1.550526,1.135793 1.975064,1.738494 0.726464,1.031344 0.792462,1.353723 1.121529,5.478466 0.566798,7.104631 1.968715,12.506763 4.647006,17.906736 8.297437,16.729319 25.594254,26.611969 44.297614,25.309769 14.021522,-0.97624 27.071235,-8.65453 34.766795,-20.45639 11.08651,-17.002173 9.71523,-38.93647 -3.41034,-54.549967 C 99.068704,39.275669 89.760114,33.704551 80.190147,31.696634 75.810539,30.777731 71.597742,30.497485 67.550384,30.855807 c -1.977206,0.175052 -3.846816,0.41145 -4.154685,0.525341 -0.488757,0.180806 -0.38564,0.28862 0.812927,0.849998 2.609198,1.222086 3.908509,3.35735 3.68476,6.055477 -0.151837,1.830912 -1.21094,3.41297 -2.88211,4.305195 -1.02105,0.54513 -1.486487,0.626495 -3.074788,0.53752 -1.818134,-0.101854 -2.077856,-0.21436 -9.090675,-3.93783 -3.970485,-2.108133 -7.65598,-4.174433 -8.189988,-4.591766 -1.431295,-1.118575 -1.838481,-2.192823 -1.825122,-4.81511 l 0.0114,-2.23226 3.932375,-7.752407 c 3.571849,-7.041648 4.036429,-7.824505 5.067321,-8.538773 0.855337,-0.592625 1.523549,-0.814472 2.712238,-0.900453 1.984641,-0.143559 3.287782,0.280863 4.459254,1.452338 1.862475,1.862482 2.204379,4.16564 1.0126,6.82127 -0.389087,0.867009 -0.659803,1.616376 -0.601586,1.665262 0.0582,0.04886 1.609823,-0.139888 3.448011,-0.419488 4.540512,-0.690638 13.394214,-0.551255 17.780294,0.279911 25.29274,4.792995 43.8508,24.790217 46.66617,50.285071 0.44784,4.055497 0.20244,11.501797 -0.51175,15.528233 -4.49724,25.354494 -24.73465,44.260854 -50.355002,47.043074 -2.410277,0.26175 -8.750638,0.32053 -10.905979,0.10112 z m -7.908848,-33.07735 c -1.620417,-0.516265 -2.70986,-1.443381 -3.456302,-2.941298 L 53.514247,95.761136 V 84.993091 74.225047 l -0.952709,0.646525 c -2.49082,1.690313 -5.601735,1.065773 -7.704201,-1.546673 -0.695289,-0.863944 -0.834525,-1.291648 -0.921487,-2.830604 -0.08113,-1.435706 0.0098,-2.030567 0.437093,-2.859185 0.296741,-0.575471 3.106599,-3.580863 6.244121,-6.678654 5.852902,-5.778782 6.521425,-6.268978 8.543031,-6.26425 2.482317,0.0059 5.035965,2.071801 5.550012,4.490164 0.40438,1.902424 0.420534,34.764024 0.01803,36.64093 -0.671365,3.130453 -4.100414,5.16968 -7.090936,4.21688 z m 25.288081,0.10645 c -5.197115,-0.724646 -9.498183,-4.230018 -11.480433,-9.356552 -0.671917,-1.737719 -0.673779,-1.767292 -0.763436,-12.160947 -0.100832,-11.689685 0.007,-12.855262 1.473064,-15.917233 3.091126,-6.456161 10.816468,-9.572378 17.613936,-7.10503 4.213043,1.52925 7.13078,4.610887 8.720633,9.210504 0.598909,1.732699 0.612294,2.008217 0.612294,12.600032 0,10.434855 -0.02155,10.897057 -0.592358,12.711316 -1.07822,3.426989 -4.001539,7.011322 -6.927603,8.494068 -2.629022,1.332228 -5.90024,1.908102 -8.656097,1.523842 z m 3.903644,-12.141259 0.909073,-0.909067 v -9.402366 c 0,-6.398214 -0.09543,-9.588962 -0.298667,-9.986376 -0.515435,-1.007873 -1.372394,-1.507582 -2.596165,-1.513871 -0.926706,-0.0047 -1.312412,0.149566 -1.938449,0.775609 l -0.781552,0.781546 0.0085,9.712836 c 0.009,10.294122 -0.01761,10.072516 1.32101,10.995124 1.095873,0.755303 2.333755,0.589054 3.376248,-0.453435 z"
   id="path782" /></svg>
