<?xml version="1.0" encoding="UTF-8" standalone="no"?>
<svg
   xmlns:dc="http://purl.org/dc/elements/1.1/"
   xmlns:cc="http://creativecommons.org/ns#"
   xmlns:rdf="http://www.w3.org/1999/02/22-rdf-syntax-ns#"
   xmlns:svg="http://www.w3.org/2000/svg"
   xmlns="http://www.w3.org/2000/svg"
   xmlns:sodipodi="http://sodipodi.sourceforge.net/DTD/sodipodi-0.dtd"
   xmlns:inkscape="http://www.inkscape.org/namespaces/inkscape"
   inkscape:export-ydpi="96"
   inkscape:export-xdpi="96"
   inkscape:export-filename="C:\Users\as.choi\slow0.5.png"
   inkscape:version="1.0beta1 (fe3e306, 2019-09-17)"
   sodipodi:docname="slow0.5.svg"
   xml:space="preserve"
   style="enable-background:new 0 0 142.448 142.448;"
   viewBox="0 0 142.448 142.448"
   y="0px"
   x="0px"
   id="Capa_1"
   version="1.1"><metadata
   id="metadata94">
  <rdf:RDF>
    <cc:Work
       rdf:about="">
      <dc:format>image/svg+xml</dc:format>
      <dc:type
         rdf:resource="http://purl.org/dc/dcmitype/StillImage" />
      <dc:title></dc:title>
    </cc:Work>
  </rdf:RDF>
</metadata>
<defs
   id="defs92" />
<sodipodi:namedview
   inkscape:current-layer="Capa_1"
   inkscape:window-maximized="0"
   inkscape:window-y="23"
   inkscape:window-x="390"
   inkscape:cy="56.674952"
   inkscape:cx="73.861592"
   inkscape:zoom="2.3135027"
   inkscape:object-paths="false"
   inkscape:snap-object-midpoints="true"
   inkscape:snap-midpoints="true"
   inkscape:snap-center="true"
   showgrid="false"
   id="namedview90"
   inkscape:window-height="943"
   inkscape:window-width="1402"
   inkscape:pageshadow="2"
   inkscape:pageopacity="0"
   guidetolerance="10"
   gridtolerance="10"
   objecttolerance="10"
   borderopacity="1"
   inkscape:document-rotation="0"
   bordercolor="#666666"
   pagecolor="#ffffff" />


<g
   id="g59">
</g>

<g
   id="g61">
</g>

<g
   id="g63">
</g>

<g
   id="g65">
</g>

<g
   id="g67">
</g>

<g
   id="g69">
</g>

<g
   id="g71">
</g>

<g
   id="g73">
</g>

<g
   id="g75">
</g>

<g
   id="g77">
</g>

<g
   id="g79">
</g>

<g
   id="g81">
</g>

<g
   id="g83">
</g>

<g
   id="g85">
</g>

<g
   id="g87">
</g>

<path
   style="fill:#1d1d1b;stroke-width:0.926518"
   d="M 105.2706,40.117978 77.686602,20.677826 c -3.369,-2.073983 -8.059,-0.0069 -8.059,3.55221 V 63.1112 c 0,3.559077 4.69,5.626193 8.059,3.55221 L 105.2696,47.222399 c 2.834,-1.743485 2.834,-5.360078 0.001,-7.104421 z"
   id="path55-9"
   inkscape:connector-curvature="0"
   sodipodi:nodetypes="ccssccc" />
<g
   aria-label="1.5x"
   transform="matrix(1.0265173,0,0,0.97416771,7.9619247,-128.18605)"
   id="text1142-0-8-2-5"
   style="font-style:normal;font-variant:normal;font-weight:normal;font-stretch:normal;font-size:68.018px;line-height:1.25;font-family:'Arial Rounded MT Bold';-inkscape-font-specification:'Arial Rounded MT Bold, ';stroke-width:1.70045">
  <path
     inkscape:connector-curvature="0"
     d="m 43.862399,262.74402 q -2.059139,0 -3.553675,-1.32847 -1.494536,-1.32848 -1.494536,-3.71974 0,-2.02592 1.428112,-3.48725 1.428113,-1.46132 3.520463,-1.46132 2.092351,0 3.553675,1.46132 1.494536,1.42812 1.494536,3.48725 0,2.35805 -1.494536,3.71974 -1.461324,1.32847 -3.454039,1.32847 z"
     style="font-style:normal;font-variant:normal;font-weight:normal;font-stretch:normal;font-family:'Arial Rounded MT Bold';-inkscape-font-specification:'Arial Rounded MT Bold, ';stroke-width:1.70045"
     id="path1224-7" />
  <path
     d="M 80.063678,221.4284 H 64.288019 l -1.893079,10.76066 q 4.716092,-2.5241 8.701521,-2.5241 3.188344,0 5.944933,1.19563 2.789801,1.19563 4.882151,3.32119 2.092351,2.09235 3.287979,4.98179 1.195629,2.88943 1.195629,6.21062 0,4.81573 -2.158774,8.76795 -2.158774,3.95222 -6.24384,6.27705 -4.051853,2.32483 -9.365759,2.32483 -5.944932,0 -9.664667,-2.19198 -3.686522,-2.19199 -5.247482,-5.015 -1.527748,-2.85622 -1.527748,-4.98179 0,-1.29526 1.062781,-2.45768 1.095993,-1.16242 2.723377,-1.16242 2.789801,0 4.151489,3.22156 1.328477,2.95586 3.586887,4.61646 2.25841,1.62738 5.048211,1.62738 2.557317,0 4.483608,-1.32848 1.926291,-1.32847 2.95586,-3.65331 1.062781,-2.32483 1.062781,-5.28069 0,-3.18835 -1.129205,-5.44676 -1.129205,-2.25841 -3.022284,-3.3544 -1.893079,-1.1292 -4.217913,-1.1292 -2.856224,0 -4.085065,0.69745 -1.228841,0.69745 -3.553675,2.45768 -2.291622,1.72702 -3.786158,1.72702 -1.627384,0 -2.889436,-1.16242 -1.262053,-1.19563 -1.262053,-2.69016 0,-0.16606 0.365331,-2.25841 l 2.789801,-15.90851 q 0.464967,-2.85623 1.727019,-4.15149 1.262053,-1.29526 4.118277,-1.29526 h 17.535891 q 5.181058,0 5.181058,3.95221 0,1.72702 -1.262053,2.7898 -1.262052,1.06278 -3.719734,1.06278 z"
     style="font-style:normal;font-variant:normal;font-weight:normal;font-stretch:normal;font-family:'Arial Rounded MT Bold';-inkscape-font-specification:'Arial Rounded MT Bold, ';stroke-width:1.70045"
     id="path1226-6"
     inkscape:connector-curvature="0" />
  <path
     d="m 111.36044,258.99108 -6.57596,-9.66467 -6.742,9.66467 q -1.46133,2.02593 -2.490895,2.88943 -0.99636,0.86351 -2.557315,0.86351 -1.727014,0 -2.955855,-1.06278 -1.195629,-1.09599 -1.195629,-2.49089 0,-1.42811 1.859867,-4.08507 l 8.203332,-11.75701 -7.273398,-9.79752 q -1.893079,-2.42447 -1.893079,-4.21791 0,-1.3949 1.129205,-2.42447 1.129205,-1.02957 2.955857,-1.02957 1.594165,0 2.62373,0.89672 1.06279,0.89672 2.457685,2.82302 l 5.878495,8.03728 5.71245,-8.03728 q 1.42812,-1.99272 2.45768,-2.85623 1.06279,-0.86351 2.62375,-0.86351 1.79344,0 2.95586,1.02957 1.19562,0.99636 1.19562,2.42447 0,1.02957 -0.49817,1.99271 -0.46497,0.92994 -1.46133,2.2252 l -7.27341,9.79752 8.20335,11.75701 q 1.92629,2.75659 1.92629,4.15149 0,1.42812 -1.19563,2.45769 -1.19563,1.02956 -2.95586,1.02956 -1.56096,0 -2.65696,-0.89672 -1.06278,-0.89672 -2.45768,-2.85622 z"
     style="font-style:normal;font-variant:normal;font-weight:normal;font-stretch:normal;font-family:'Arial Rounded MT Bold';-inkscape-font-specification:'Arial Rounded MT Bold, ';stroke-width:1.70045"
     id="path1228-5"
     inkscape:connector-curvature="0" />
</g>
<path
   d="m 48.690314,103.89304 q 0,5.30605 -0.681852,9.12381 -0.681852,3.81777 -2.522853,6.92375 -2.318297,3.81777 -6.000297,5.88843 -3.682002,2.07065 -8.182225,2.07065 -5.182075,0 -9.30728,-2.78244 -4.091111,-2.78244 -6.170759,-7.70025 -1.056871,-2.68537 -1.56826,-5.92078 -0.477297,-3.26775 -0.477297,-7.05316 0,-4.88545 0.545482,-8.80028 0.545481,-3.91483 1.70463,-6.72963 2.011463,-4.65897 5.829834,-7.08552 3.852464,-2.45889 9.170908,-2.45889 3.511539,0 6.375318,1.10003 2.863779,1.06767 5.011612,3.17069 2.181927,2.07065 3.682002,5.14428 2.591037,5.33841 2.591037,15.10931 z m -9.341373,-0.64708 q 0,-5.92078 -0.750037,-9.67384 -0.750038,-3.78542 -2.522853,-5.6943 -1.772815,-1.94124 -4.909335,-1.94124 -4.500223,0 -6.273038,4.30308 -1.738722,4.30307 -1.738722,13.26512 0,6.08255 0.750037,9.96503 0.750036,3.88248 2.522851,5.88842 1.772816,1.9736 4.807058,1.9736 3.136519,0 4.909334,-2.07066 1.772816,-2.07065 2.48876,-5.92078 0.715945,-3.85012 0.715945,-10.09443 z"
   style="font-style:normal;font-variant:normal;font-weight:normal;font-stretch:normal;font-size:68.018px;line-height:1.25;font-family:'Arial Rounded MT Bold';-inkscape-font-specification:'Arial Rounded MT Bold, ';stroke-width:1.70045"
   id="path1251-2"
   inkscape:connector-curvature="0" />
<path
   id="path1383"
   d="M 55.876953 19.919922 A 5.1500001 5.1500001 0 0 0 50.728516 25.070312 L 50.728516 62.359375 A 5.1500001 5.1500001 0 0 0 55.876953 67.509766 A 5.1500001 5.1500001 0 0 0 61.027344 62.359375 L 61.027344 25.070312 A 5.1500001 5.1500001 0 0 0 55.876953 19.919922 z "
   style="color:#000000;font-style:normal;font-variant:normal;font-weight:normal;font-stretch:normal;font-size:medium;line-height:normal;font-family:sans-serif;font-variant-ligatures:normal;font-variant-position:normal;font-variant-caps:normal;font-variant-numeric:normal;font-variant-alternates:normal;font-variant-east-asian:normal;font-feature-settings:normal;font-variation-settings:normal;text-indent:0;text-align:start;text-decoration:none;text-decoration-line:none;text-decoration-style:solid;text-decoration-color:#000000;letter-spacing:normal;word-spacing:normal;text-transform:none;writing-mode:lr-tb;direction:ltr;text-orientation:mixed;dominant-baseline:auto;baseline-shift:baseline;text-anchor:start;white-space:normal;shape-padding:0;shape-margin:0;inline-size:0;clip-rule:nonzero;display:inline;overflow:visible;visibility:visible;isolation:auto;mix-blend-mode:normal;color-interpolation:sRGB;color-interpolation-filters:linearRGB;solid-color:#000000;solid-opacity:1;vector-effect:none;fill:#000000;fill-opacity:1;fill-rule:nonzero;stroke:none;stroke-width:10.3;stroke-linecap:round;stroke-linejoin:miter;stroke-miterlimit:3.8;stroke-dasharray:none;stroke-dashoffset:0;stroke-opacity:1;filter-blend-mode:normal;filter-gaussianBlur-deviation:0;color-rendering:auto;image-rendering:auto;shape-rendering:auto;text-rendering:auto;enable-background:accumulate;stop-color:#000000;stop-opacity:1;opacity:1" />
</svg>
