<?xml version="1.0" encoding="UTF-8" standalone="no"?>
<svg
   xmlns:dc="http://purl.org/dc/elements/1.1/"
   xmlns:cc="http://creativecommons.org/ns#"
   xmlns:rdf="http://www.w3.org/1999/02/22-rdf-syntax-ns#"
   xmlns:svg="http://www.w3.org/2000/svg"
   xmlns="http://www.w3.org/2000/svg"
   xmlns:sodipodi="http://sodipodi.sourceforge.net/DTD/sodipodi-0.dtd"
   xmlns:inkscape="http://www.inkscape.org/namespaces/inkscape"
   inkscape:version="1.0beta1 (fe3e306, 2019-09-17)"
   sodipodi:docname="tab_down.svg"
   xml:space="preserve"
   style="enable-background:new 0 0 512 512;"
   viewBox="0 0 512 512"
   y="0px"
   x="0px"
   id="Capa_1"
   version="1.1"><metadata
   id="metadata122">
  <rdf:RDF>
    <cc:Work
       rdf:about="">
      <dc:format>image/svg+xml</dc:format>
      <dc:type
         rdf:resource="http://purl.org/dc/dcmitype/StillImage" />
      <dc:title></dc:title>
    </cc:Work>
  </rdf:RDF>
</metadata>
<defs
   id="defs120" />
<sodipodi:namedview
   inkscape:current-layer="Capa_1"
   inkscape:window-maximized="0"
   inkscape:window-y="155"
   inkscape:window-x="90"
   inkscape:cy="256"
   inkscape:cx="256"
   inkscape:zoom="0.56640625"
   showgrid="false"
   id="namedview118"
   inkscape:window-height="810"
   inkscape:window-width="1025"
   inkscape:pageshadow="2"
   inkscape:pageopacity="0"
   guidetolerance="10"
   gridtolerance="10"
   objecttolerance="10"
   borderopacity="1"
   inkscape:document-rotation="0"
   bordercolor="#666666"
   pagecolor="#ffffff" />


<g
   id="g87">
</g>

<g
   id="g89">
</g>

<g
   id="g91">
</g>

<g
   id="g93">
</g>

<g
   id="g95">
</g>

<g
   id="g97">
</g>

<g
   id="g99">
</g>

<g
   id="g101">
</g>

<g
   id="g103">
</g>

<g
   id="g105">
</g>

<g
   id="g107">
</g>

<g
   id="g109">
</g>

<g
   id="g111">
</g>

<g
   id="g113">
</g>

<g
   id="g115">
</g>

<path
   inkscape:connector-curvature="0"
   id="path139"
   d="m 311.41683,493.09818 c -4.11637,-4.11637 -4.287,-9.22005 -0.43697,-13.07007 l 2.60052,-2.60054 h 89.12293 89.12291 l 3.13863,3.13864 c 2.83743,2.83743 3.09141,3.49079 2.64645,6.80816 -0.30701,2.28894 -1.36151,4.53892 -2.80282,5.98033 l -2.31063,2.3108 -89.02176,0.23509 -89.02176,0.2351 z m 85.48319,-56.40793 c -5.59898,-4.15122 -40.1767,-39.54228 -40.89362,-41.85554 -2.18487,-7.0498 4.47553,-14.00672 11.67887,-12.19879 1.34861,0.33847 7.47647,5.61656 14.23449,12.26052 l 11.86647,11.66619 v -47.37389 -47.37389 l 2.60053,-2.60053 c 3.84495,-3.84495 8.95416,-3.67893 13.0574,0.4243 l 3.02482,3.02483 v 47.00543 47.00544 l 11.34311,-11.23402 c 6.2387,-6.17871 12.21756,-11.67768 13.28634,-12.21993 7.26532,-3.68606 15.61205,4.30196 12.34266,11.81224 -0.6634,1.52395 -10.38668,11.90767 -21.60727,23.0749 -18.40887,18.32135 -20.7416,20.34886 -23.88813,20.76263 -2.88798,0.37978 -4.09843,0.005 -7.04567,-2.17989 z M 65.620685,362.59302 c -8.9552,-1.75994 -16.93033,-8.12986 -20.88096,-16.67812 l -1.92245,-4.15973 V 220.76207 99.768979 l 2.19177,-4.44827 c 3.07582,-6.24251 9.62456,-12.36671 15.62444,-14.61155 4.35497,-1.62941 6.91026,-1.84707 21.68342,-1.84707 h 16.74667 l 0.4494,-7.88184 c 0.3834,-6.72418 0.882905,-8.69518 3.400895,-13.41941 3.37356,-6.32946 8.55187,-10.99694 14.85949,-13.39364 2.37999,-0.90433 9.30815,-2.12807 15.39592,-2.71942 37.88776,-3.68034 76.23238,7.55562 109.19734,31.99765 4.01799,2.97916 7.95483,5.41666 8.74853,5.41666 0.79371,0 4.0943,-1.95479 7.33467,-4.34398 32.1038,-23.67076 67.76157,-35.36403 102.41917,-33.58634 19.87879,1.01964 25.75168,2.64871 32.93083,9.13464 5.40046,4.879 8.32746,11.7363 8.87232,20.78582 l 0.45546,7.56503 18.23793,0.44958 c 17.61097,0.43412 18.39086,0.53087 22.68621,2.81451 5.32882,2.83308 10.17058,7.7367 13.02809,13.19453 l 2.09605,4.00345 0.23872,91.464191 0.23871,91.46419 -2.61683,2.61684 c -3.86191,3.8619 -8.96299,3.70271 -13.07371,-0.408 l -3.02482,-3.02483 V 192.29311 103.5945 l -3.02483,-3.02483 -3.02483,-3.024831 h -16.10276 -16.10275 v 82.382061 82.38207 l -3.13864,3.13863 c -2.83743,2.83743 -3.49079,3.09141 -6.80816,2.64645 -2.28884,-0.307 -4.53898,-1.36154 -5.98033,-2.80273 l -2.3108,-2.31054 -0.44483,-98.26698 -0.44483,-98.266981 -2.23556,-2.23529 c -3.13516,-3.13479 -10.26829,-4.3039 -26.2334,-4.29962 -31.56525,0.008 -58.22104,9.46519 -86.51897,30.69447 l -8.22931,6.17368 V 215.47019 334.16032 l 8.22931,-5.41259 c 22.5852,-14.85475 52.68492,-25.2914 74.79712,-25.93483 6.89133,-0.20053 6.98797,-0.17237 9.66514,2.81627 2.39722,2.67613 2.65214,3.48076 2.24556,7.08789 -0.58713,5.2091 -3.45237,7.83269 -9.29115,8.50756 -24.96507,2.88562 -43.66627,8.84701 -61.18047,19.50254 l -5.33793,3.24757 19.37858,0.003 c 21.54445,0.003 24.41218,0.56124 26.8244,5.22595 1.76023,3.4039 1.76023,5.72119 0,9.12509 -2.85217,5.51549 4.41234,5.23296 -131.80371,5.12618 -68.39683,-0.0536 -126.106685,-0.44116 -128.244115,-0.86122 z M 220.64409,342.69431 c -5.03513,-3.52675 -21.39841,-11.39551 -29.56779,-14.21853 -17.53249,-6.05858 -24.56133,-7.08151 -49.06248,-7.14022 -20.30495,-0.0487 -22.07797,-0.18201 -25.9089,-1.94882 -5.89822,-2.72026 -11.0272,-7.71731 -13.87667,-13.51978 l -2.473045,-5.03593 -0.23714,-101.64309 -0.23714,-101.643101 -15.33183,0.003 c -17.7738,0.004 -20.23554,0.77036 -21.99646,6.848961 -0.69572,2.40161 -0.9027,36.78338 -0.7157,118.88458 l 0.2631,115.50585 2.90541,2.5959 2.90542,2.59589 h 77.583905 c 67.88931,0 77.35468,-0.16057 75.74932,-1.285 z m 21.0111,-127.25716 V 96.681209 l -5.11552,-4.03705 c -24.59717,-19.41152 -49.98103,-29.96057 -78.24016,-32.51511 -12.5901,-1.13811 -30.7675,0.10202 -35.21631,2.40259 -5.33378,2.7582 -5.09007,-2.98689 -5.09007,119.990871 0,123.44921 -0.31321,116.27586 5.20145,119.1276 2.01804,1.04358 5.32978,1.19723 17.11081,0.79391 20.74212,-0.7101 35.9297,1.35359 54.19808,7.36442 11.4693,3.77374 30.04823,12.84839 39.58965,19.33707 3.91448,2.66206 7.21733,4.88678 7.33966,4.94385 0.12232,0.057 0.22241,-53.33644 0.22241,-118.65221 z"
   style="fill:#000000;stroke-width:0.889655" />
</svg>
